<?xml version="1.0" encoding="UTF-8"?>
<svg id="Capa_1" xmlns="http://www.w3.org/2000/svg" version="1.1" viewBox="0 0 1080 1080">
  <!-- Generator: Adobe Illustrator 29.5.0, SVG Export Plug-In . SVG Version: 2.1.0 Build 137)  -->
  <defs>
    <style>
      .st0 {
        fill: #62398d;
      }
    </style>
  </defs>
  <circle class="st0" cx="210.71" cy="510.29" r="3.41"/>
  <path class="st0" d="M289.76,449.58c-.72.7-.17,1.92.83,1.83,6.51-.57,21.23-1.04,31.26,4.86,1.09.49-3.15-8.37-.24-20.62,2.44-10.27,14.35-55.53,18.13-69.86.29-1.09,1.85-1.05,2.09.05l10.82,51.06c.16.78-.54,1.46-1.31,1.26-3.99-1.03-14.18-2.71-20.66,4.66-.48.55-.28,1.41.4,1.66,8.52,3.1,18.97,6.97,25.88,15.67.08.1.14.2.18.32.79,2.38,3.07,15.42,4.49,20.2,1.27,4.28-.64,7.45-2.72,9.28-.47.42-.5,1.13-.04,1.57,5.08,4.88,19.07,18.52,24.45,27.29.71,1.16,1.94,1.88,3.3,1.88h10.17c.85,0,1.36-.93.91-1.65l-6.79-10.7c-.47-.74-.8-1.55-.98-2.41-2.6-12.33-23.06-109.27-26.47-127.32-3.55-18.79-20.22-53.83-53.07-54.59-.97-.02-1.49,1.15-.8,1.84,8.66,8.66,17.93,16.34,13.85,31.64-4.37,16.37-24.01,89.38-25.95,97.14-1.65,6.6-3.48,10.75-7.72,14.9Z"/>
  <path class="st0" d="M406.17,411.43l28.67-18.69c.9-.59,2.1.06,2.1,1.14v91.63c0,1.98.5,3.92,1.46,5.65l3.49,6.33c.4.73-.1,1.63-.93,1.67l-35.5,1.66c-.7.03-1.16-.73-.8-1.33l5.77-9.8c.45-.76.68-1.62.67-2.5l-.34-63.45c0-1.4-.43-2.77-1.22-3.93l-3.89-5.72c-.59-.87-.35-2.06.53-2.64Z"/>
  <path class="st0" d="M508.75,599.03l26.94-18.03c.51-.34,1.19.02,1.19.63v146.85c0,.1.02.21.06.3l5.3,12.26c.22.5-.15,1.06-.69,1.07l-35,.34c-.56,0-.93-.57-.7-1.08l5.13-11.25c.05-.1.07-.21.07-.32l-.36-120.34c0-.46-.11-.92-.33-1.33l-2.64-5.09c-.73-1.41-.29-3.14,1.03-4.02Z"/>
  <path class="st0" d="M669.06,571.43l29.62-20.26c.87-.59,2.04.03,2.04,1.08v176.11c0,.19.04.38.13.56l5.56,11.72c.41.87-.22,1.87-1.18,1.87l-38.29-.03c-1.01,0-1.64-1.11-1.12-1.98l6.56-10.93c.12-.2.19-.43.19-.67l.33-147.4c0-.21-.05-.42-.15-.61l-4.12-7.78c-.31-.59-.13-1.31.42-1.69Z"/>
  <path class="st0" d="M416.2,324.8c-11.99,0-21.71,9.72-21.71,21.71s9.72,21.71,21.71,21.71c.02,0,.05,0,.07,0-.27,5.63-2.99,8.65-7.59,11.52-4.37,2.73-7.4,2.36-7.4,6.55,0,5.64,7.08,4.21,12.73.97,3.7-2.12,23.89-14.92,23.89-40.75,0-11.99-9.72-21.71-21.71-21.71Z"/>
  <path class="st0" d="M520.8,509.99c-11.99,0-21.71,9.72-21.71,21.71s9.72,21.71,21.71,21.71c.02,0,.05,0,.07,0-.27,5.63-2.99,8.65-7.59,11.52-4.37,2.73-7.4,2.36-7.4,6.55,0,5.64,7.08,4.21,12.73.97,3.7-2.12,23.89-14.92,23.89-40.75,0-11.99-9.72-21.71-21.71-21.71Z"/>
  <path class="st0" d="M683.44,480.16c-11.99,0-21.71,9.72-21.71,21.71s9.72,21.71,21.71,21.71c.02,0,.05,0,.07,0-.27,5.63-2.99,8.65-7.59,11.52-4.37,2.73-7.4,2.36-7.4,6.55,0,5.64,7.08,4.21,12.73.97,3.7-2.12,23.89-14.92,23.89-40.75,0-11.99-9.72-21.71-21.71-21.71Z"/>
  <path class="st0" d="M295.29,472.52c-59.67,0-95.57,33.47-165.42,46.57-60.22,11.29-89.07-27.89-95.89-38.91-.59-.95-2.04-.65-2.21.46-6.14,39.79,30.8,64.2,71.42,65.62,5.68.2,10.97.14,15.96-.14.69-.04,1.26.5,1.26,1.19v210.1c0,.23-.06.45-.19.64l-5.32,8.42c-.5.8.07,1.84,1.01,1.84h34.41c.9,0,1.48-.96,1.06-1.76l-5.25-9.99c-.09-.17-.14-.36-.14-.56v-212.93c0-.55.37-1.02.9-1.15,17.96-4.52,33.94-11.97,55.25-19.93,36.38-13.58,47.54-21.83,87.8-21.83s54.58,18.96,77.4,46.04c.67.79,1.99.44,2.12-.59,2.94-23.2-16.74-73.1-74.18-73.1Z"/>
  <path class="st0" d="M275.18,678.57l22.17,13.56c2.3,1.41,5.28-.07,5.55-2.76l12.81-128.41c.13-1.28,1.85-1.59,2.42-.45l39.31,78.62c.56,1.12-.66,2.31-1.76,1.7-4.63-2.59-12.9-6.42-21.34-6.42-11.92,0-17.14,9.13-17.76,19.25-.06.97.91,1.64,1.81,1.27,5.87-2.45,11.68-3.5,16.5-3.12,10.58.84,35.11,15.34,47.48,40.81,10.89,22.43,17.84,36.39,19.34,39.41.19.39.17.84-.04,1.21l-3.43,5.84c-.5.85.11,1.93,1.11,1.93h50.52c11.64,0,36.08-7.52,36.08-38.57v-128.55c0-20.86-15.96-52.65-45.3-49.84-20.82,1.99-43.17,4.4-49.78,5.03-.92.09-1.44,1.09-.99,1.9l5.92,10.61c.11.19.16.41.16.62v87.9c0,.2.05.39.13.57l21.69,43.6c.6,1.21,2.43.78,2.43-.57v-129.83c0-.67.51-1.22,1.17-1.28,6.42-.57,37.03-1.92,37.03,24.14v139.71c0,10.55-3.27,29.47-19.28,29.47s-39.05-60.4-48.27-78.83c-9.22-18.43-37.35-72.52-50.45-101.14-12.45-27.21-30.16-36.66-63.76-37.53-1.36-.04-1.82,1.81-.61,2.44,16.98,8.71,22.94,9.72,20.71,27.33-2.17,17.17-13.69,98.57-16.06,115.34-.28,1.98-1.15,3.82-2.5,5.29l-3.8,4.16c-1.55,1.7-1.17,4.39.79,5.59Z"/>
  <path class="st0" d="M621.82,597.44l24.92-13.78c.6-.33.97-.96.97-1.65v-41.33c0-21.1-17.46-44.39-42.2-44.39s-47.42,18.43-47.42,54.82v145.05c0,17.46,11.52,46.81,47.18,46.81s41.96-30.56,41.96-45.36v-80.76c0-1.43-1.53-2.34-2.78-1.66l-27.15,14.67c-.94.51-1.27,1.69-.73,2.62l4.94,8.42c.17.29.26.62.26.95v61.34c0,9.46-2.55,23.28-14.55,23.28s-22.92-13.1-22.92-32.74v-147.71c0-17.46,5.46-35.66,21.47-35.66s16.37,21.1,16.37,28.74v43.9c0,.88-.12,1.76-.36,2.61l-2.68,9.67c-.45,1.61,1.27,2.97,2.73,2.16Z"/>
  <path class="st0" d="M801.32,515.81c-5.56,3.18-10.11,4.2-12.68,5.12-.69.25-1.39-.33-1.28-1.06l1.95-13.34s-8.73-3.09-15.28-3.09-51.85-3.27-51.85,45.24v150.38c0,20.86,12.61,44.63,46.08,44.63s48.51-22.31,48.51-41.72v-148.32c0-29.65-10.01-36.02-15.46-37.84ZM789.73,688.87c0,19.4-3.52,39.29-20.01,39.29s-19.89-14.8-19.89-37.84v-146.74c0-14.31,7.52-25.35,18.68-25.35l-3.01,30.28c-.17,3.82,4.02,6.26,7.26,4.23l16.98-13.52v149.65Z"/>
  <path class="st0" d="M998.81,623.02c-14.13,0-20.4,5.77-22.95,9.39-.86,1.22-.09,2.91,1.39,3.09,10.38,1.27,44.73,9.47,44.73,62.59,0,56.76-32.02,61.12-42.93,61.12-4.26,0-13.24-1.85-19.49-6.44-3.22-2.36-5.01-6.21-5.01-10.2v-249.83c0-.53.21-1.04.58-1.41l3.91-3.91c1.11-1.11.57-3-.96-3.35l-32.26-7.52c-1.58-.37-2.92,1.21-2.3,2.71l4.19,10.11c.1.24.15.5.15.76v205.83c0,2.18-3,2.79-3.84.77-14.66-35.47-66.47-161.79-75.72-184.92-10.67-26.68-39.78-52.88-69.37-52.88-27.03,0-47.63,17.1-51,35.72-.33,1.82,1.73,3.12,3.18,1.96,6.26-5.01,20.2-12.82,48.91-12.82s43.3,19.63,59.87,59.23c.1.25.16.51.16.78v185.75c0,.36-.1.72-.28,1.03l-5,8.33c-.8,1.33.16,3.02,1.71,3.02h33.79c1.49,0,2.45-1.57,1.78-2.9l-4.5-8.86c-.14-.28-.22-.59-.22-.9v-106.4c0-2.19,3.01-2.78,3.84-.76.53,1.3,1.07,2.61,1.62,3.94,39.29,95.32,43.66,149.9,104.78,149.9s71.31-50.21,71.31-81.5-23.16-71.43-50.09-71.43Z"/>
  <path class="st0" d="M340.34,680.21c-1.87-.06-3.18,1.77-2.57,3.53,4.02,11.61,1.69,33.81-22.54,33.81-16.4,0-54.31-20.73-86.94-63.36-.95-1.24-.63-3.03.66-3.91,21.63-14.78,42.13-40.15,42.13-80.51,0-35.9-29.11-42.93-50.69-33.71-24.96,10.66-45.37,19.27-57.24,24.04,1.17,1.53,4.8,7.45,6.34,9.98.46.75.7,1.61.7,2.5v155.07c0,1.6-.49,3.17-1.4,4.48l-4.06,5.88c-.67.97.02,2.28,1.2,2.28h33.25c1.04,0,1.74-1.05,1.35-2.01l-3.67-8.92c-.39-.95-.59-1.97-.59-3v-60.87c3.19-1.08,7.09-1.74,11-3.21,1.11-.42,2.35-.07,3.08.86,17.38,22.3,64.1,78.92,100.28,77.64,35.17,0,47.66-23.28,47.66-39.66,0-13.98-10.42-20.66-17.95-20.91ZM196.57,646.79v-84.17s15.08-8.01,22.19-10.67c8.73-3.27,26.07-4.61,26.07,28.14,0,47.3-48.27,66.7-48.27,66.7Z"/>
  <path class="st0" d="M539.91,449.96c-3.17-24.23-12.36-37.29-19.52-44.86-.58-.62-.5-1.59.15-2.13,14.83-12.28,23.36-26.27,23.36-40.81,0-23.77-15.52-32.74-30.32-32.74-12.31,0-43.41.02-53.39.03-1.27,0-2.1,1.31-1.57,2.46l3.64,7.93c1.35,2.95,1.84,5.2,1.84,7.49v134.25c0,1.6-.25,3.19-.74,4.72l-2.51,7.85c-.45,1.4.78,2.76,2.22,2.47l33.21-6.86c1.08-.22,1.57-1.49.91-2.38l-6.07-8.17c-.93-1.26-1.44-2.78-1.44-4.34v-50.7c0-1.33.77-2.54,1.97-3.12,3.41-1.65,6.69-3.36,9.81-5.12,1.42-.8,3.15-.92,4.59-.15,3.76,2.01,7.59,7.36,8.73,20.39,2.43,27.89,7.4,64.88,32.87,64.88,10.27,0,19.28-4.67,22.22-7.01.69-.55.56-1.75-.31-1.94-9.54-2.09-25.68-11.51-29.67-42.11ZM489.51,398.57v-53.6c0-1.05.8-1.91,1.85-2,6.53-.56,28.17-.99,28.17,17.85,0,20.84-16.35,34.78-27.84,39.26-1.05.41-2.18-.39-2.18-1.51Z"/>
  <path class="st0" d="M570.83,345.46v115.03c0,.74-.1,1.48-.3,2.19l-2.26,8.21c-.4,1.46.91,2.82,2.38,2.46,12.07-2.95,54.29-12.97,74.36-14.02,1.77-.09,3.16-1.54,3.22-3.31.25-8.42.55-17.28.71-21.78.04-1.11-1.28-1.69-2.09-.92l-3.47,3.3c-1.18,1.12-2.64,1.89-4.23,2.22l-42.32,8.93c-.94.2-1.82-.52-1.82-1.48v-26.88c0-17.92,12.19-30.02,19.15-30.02,4.87,0-1.77.7-1.77,11.19s9.23,11.6,13.64,11.6c5.14,0,12.1-3.96,12.1-14.51s-10.46-19.01-22.1-19.01c-8.62,0-15.36,3.79-18.28,5.75-.68.46-1.58-.04-1.58-.85v-37.04h39.75c1.34,0,2.62.53,3.57,1.48l5.76,5.76c1.07,1.07,2.89.31,2.89-1.2v-21.47c0-1.46-1.18-2.64-2.64-2.64h-76.18c-1.57,0-2.67,1.56-2.13,3.04l2.3,6.38c.88,2.44,1.33,5.01,1.33,7.6Z"/>
  <path class="st0" d="M663.85,397.32s16.12,13.04,23.93,16.32c1,.42,1.38,1.62.79,2.53-2.35,3.55-4.58,7.31-4.58,13.96,0,7.82,5.46,15.46,18.56,15.46s20.92-9.64,20.92-20.92-9.46-20.74-27.29-30.38c-17.83-9.64-35.66-16.8-35.66-39.84s27.23-27.23,37.66-27.23,33.23,4.37,33.23,21.1v23.04l-22.99-10.61c-1.1-.51-1.55-1.85-.95-2.9,1.11-1.92,2.53-5.28,2.53-9.87,0-9.19-10.1-10.64-13.73-10.64s-13.86.3-13.86,15.83,13.22,19.1,31.77,31.47c18.56,12.37,31.53,19.71,31.53,42.75s-24.56,31.65-41.84,31.65-40.87-5.58-40.87-31.53c0-21.65.85-30.2.85-30.2Z"/>
  <path class="st0" d="M767.01,349.2c-.62.98.31,2.2,1.42,1.84,2.96-.96,8.79-2.86,18.45-2.86,18.19,0,21.17,17.12,49.06,17.12,21.41,0,28.1-13.21,30.05-19.36.34-1.07-.79-2.01-1.77-1.46-4.04,2.24-13.07,6.03-27.92,6.03-21.1,0-24.45-14.21-46.52-14.21-11.77,0-19.78,8.19-22.78,12.9Z"/>
  <path class="st0" d="M783.87,435.3c17.55-.27,38.66,14.28,56.85,14.28,17.06,0,26.08-7.18,27.24-17.37.09-.76-.78-1.23-1.39-.77-5.67,4.29-14.35,6.5-24.31,6.5-10.91,0-35.29-14.92-53.85-14.92-17.46,0-27.13,6.84-27.13,15.12,0,2,2.61-2.53,22.58-2.84Z"/>
  <path class="st0" d="M765.41,372.69s5.48-3.61,13.01-3.61c14.68,0,19.28,8.64,19.28,18.37,0,13.83-5.9,17.27-12.45,17.27v-25.38c0-1.56-.98-2.95-2.44-3.5-2.71-1.03-7.82-2.3-12.24.02v28.98l-1.64,5.82s3.47-.87,10.82-1.36c4.81-.32,12.72-.3,17.37-.64,7.52-.55,12.97-8.58,12.97-17.1,0-4,.03-4.49.03-8.76,0-11.92-6.04-21.75-27.75-21.75-15.32,0-16.98,11.64-16.98,11.64Z"/>
  <path class="st0" d="M846.01,411.27c-11.04,0-12.25-4-12.25-4v-6.79h4.66c.85,0,1.67.34,2.27.94l1.6,1.6c.64.64,1.73.19,1.73-.72v-9.34c0-.69-.84-1.04-1.33-.54l-2.31,2.35c-.39.4-.93.62-1.49.62h-5.14v-8.09h18.5c1.47,0,2.84.74,3.65,1.98l1.23,1.88c.26.4.88.22.88-.26v-14.06c0-.45-.48-.73-.87-.51l-1.04.59c-1.84,1.04-3.92,1.59-6.04,1.59h-20.69c-.95,0-1.9-.13-2.81-.38l-3.93-1.09c-1.24-.34-2.26,1-1.61,2.1l.44.74c.98,1.64,1.5,4.76,1.5,6.68v20.65c0,.83-.24,1.65-.7,2.34-.75,1.13-1.76,2.89-2.31,3.85-.17.29.05.65.39.63,1.82-.1,6.54-.17,10.27,1.27,4.73,1.82,6.85,5.15,16.8,5.15,10.63,0,11.49-2,11.62-9.76.18-11.22-2.23.61-13.01.61Z"/>
</svg>