<?xml version="1.0" encoding="UTF-8"?>
<svg id="Capa_1" xmlns="http://www.w3.org/2000/svg" version="1.1" viewBox="0 0 1080 1080">
  <!-- Generator: Adobe Illustrator 29.5.0, SVG Export Plug-In . SVG Version: 2.1.0 Build 137)  -->
  <defs>
    <style>
      .st0 {
        fill: #62398d;
      }
    </style>
  </defs>
  <path class="st0" d="M174.32,465.62v-103.19h75.31v289.21h-66.66l-3.39-24.49c-12.81,20.1-33.77,30.13-62.89,30.13-27.12,0-49.34-10.27-66.66-30.86-17.33-20.35-25.99-46.46-25.99-78.33s8.66-58.01,25.99-78.33c17.07-20.35,39.29-30.49,66.66-30.49,24.59,0,43.81,8.76,57.62,26.36ZM110.11,582.54c6.65,8.92,15.63,13.36,26.92,13.36s20.33-4.38,27.11-13.18c6.79-8.76,10.3-20.72,10.54-35.76,0-15.08-3.45-26.94-10.34-35.58-6.91-8.67-16.01-12.99-27.31-12.99s-20.27,4.38-26.92,13.18c-6.67,8.8-9.99,20.59-9.99,35.4s3.33,26.66,9.99,35.58Z"/>
  <path class="st0" d="M388.56,573.31l36.53-128.04h76.83l-80.97,212.01c-10.8,28.87-23.61,48.57-38.42,59.15-14.82,10.54-35.4,15.81-61.77,15.81h-35.01v-55.38h36.53c8.27,0,14.24-1.2,17.88-3.55,3.63-2.39,7.34-7.72,11.11-16.03l-82.09-212.01h79.45l39.92,128.04Z"/>
  <path class="st0" d="M610.73,660.32c-27.87,0-50.96-5.42-69.29-16.21-18.33-10.79-29.76-26.72-34.28-47.81l70.81-6.8c5.52,16.82,17.19,25.25,35.01,25.25s27.49-6.16,27.49-18.45c0-9.81-7.91-16.33-23.72-19.58l-46.32-9.81c-37.65-7.78-56.48-27.73-56.48-59.88,0-21.33,8.27-38.34,24.85-51.03,16.56-12.66,39.66-19,69.29-19,58.49,0,92.38,20.07,101.67,60.25l-68.91,6.04c-4.01-14.31-14.82-21.48-32.39-21.48-7.78,0-13.87,1.5-18.27,4.54-4.38,3-6.59,7.02-6.59,12.04,0,9.29,6.79,15.05,20.33,17.32l39.55,7.17c23.6,4.26,41.1,11.65,52.53,22.19,11.43,10.57,17.13,24.73,17.13,42.57,0,23.11-8.9,41-26.72,53.66-17.84,12.69-43.07,19.03-75.7,19.03Z"/>
  <path class="st0" d="M816.85,407.61h-75.31v-59.85h75.31v59.85ZM816.85,651.64h-75.31v-206.37h75.31v206.37Z"/>
  <rect class="st0" x="849.57" y="576.33" width="206.37" height="75.31"/>
</svg>