<?xml version="1.0" encoding="UTF-8"?>
<svg id="Capa_1" xmlns="http://www.w3.org/2000/svg" version="1.1" viewBox="0 0 1080 1080">
  <!-- Generator: Adobe Illustrator 29.5.0, SVG Export Plug-In . SVG Version: 2.1.0 Build 137)  -->
  <defs>
    <style>
      .st0, .st1 {
        fill: #62398d;
      }

      .st1 {
        fill-rule: evenodd;
      }
    </style>
  </defs>
  <g>
    <path class="st1" d="M876.23,694.52c0-17.07-13.14-24.3-32.19-43.35l-70.39-70.39c-46.04-46.04-47.03-29.37,21.46-97.86,7.22-7.22,53.38-56.23,58.8-56.23,12.36,0,11.42,3.69,23.61,15.88l106.44,106.44c8.3,8.32,9.69,13.31,24.47,13.31,9.93,0,22.65-7.96,24.04-20.25v-4.45c-.66-6.08-4.06-12.99-11.58-20.37-6.2-6.08-11.04-11.02-17.18-17.16l-104.73-104.73c-8.61-8.61-25.01-29.15-36.4-32.4-19.23-5.5-32.42,14.52-42.57,24.68-9.11,9.11-135.19,133.46-139.5,140.35-13.02,20.83,3.91,32.24,15.88,44.21l140.04,139.81c16.34,12.39,39.8,4.1,39.8-17.49Z"/>
    <path class="st1" d="M819.58,529.7c0,16.43,25.61,36.77,40.78,51.93l117.6,117.6c4.02,4.02,14.46,16.61,26.66,19.31h8.94c3.59-.86,7.23-2.84,10.82-6.38,5.19-5.12,7.58-10.1,8.09-14.85v-4.1c-1.42-13.06-15.78-23.93-21.89-30.04l-133.06-133.06c-7.56-7.56-17.58-21.6-29.68-23.6-13.67-2.26-28.26,11.03-28.26,23.17Z"/>
    <path class="st1" d="M723.43,718.55c14.29,0,25.75-10.25,25.75-24.04,0-15.53-15.9-26.98-24.45-35.64-31.91-32.33-67.55,3.47-36.95,33.51,8.19,8.04,21.67,26.16,35.64,26.16Z"/>
    <path class="st1" d="M960.36,385.48c0,16.43,7.3,18.46,20.17,31.33,7.08,7.08,14.98,18.46,27.9,18.46,9.16,0,22.38-7.94,24.04-20.67v-5.4c-.79-6.38-4.44-13.67-12.44-21.58-6.18-6.1-11.65-12.4-18-18.05-16.1-14.34-41.66-6.9-41.66,15.91Z"/>
    <path class="st1" d="M675.36,385.48c0,36.33,49.79,31.16,49.79,1.72,0-12.21-12.68-25.75-24.04-25.75-12.57,0-25.75,11.68-25.75,24.04Z"/>
  </g>
  <g>
    <path class="st0" d="M47.53,635.58v-143.14h107.96v28.01h-76.68v29.03h67.48v28.01h-67.48v30.06h77.7v28.01H47.53Z"/>
    <path class="st0" d="M219.71,637.63c-15.34,0-32.51-5.11-47.03-16.56l13.29-20.45c11.86,8.59,24.33,13.09,34.56,13.09,9,0,13.09-3.27,13.09-8.18v-.41c0-6.75-10.63-9-22.7-12.68-15.34-4.5-32.72-11.66-32.72-32.92v-.41c0-22.29,18-34.76,40.08-34.76,13.9,0,29.04,4.7,40.9,12.68l-11.86,21.47c-10.84-6.34-21.67-10.23-29.65-10.23-7.56,0-11.45,3.27-11.45,7.57v.41c0,6.13,10.43,9,22.29,13.09,15.34,5.11,33.13,12.47,33.13,32.51v.41c0,24.33-18.2,35.37-41.92,35.37Z"/>
    <path class="st0" d="M348.12,635.58v-11.86c-7.56,8.38-18,13.9-33.12,13.9-20.65,0-37.63-11.86-37.63-33.54v-.41c0-23.92,18.2-34.97,44.17-34.97,11.04,0,19.02,1.84,26.79,4.5v-1.84c0-12.88-7.97-20.04-23.51-20.04-11.86,0-20.24,2.25-30.26,5.93l-7.77-23.72c12.06-5.32,23.92-8.79,42.53-8.79,33.94,0,48.87,17.59,48.87,47.24v63.59h-30.06ZM348.73,591.41c-5.32-2.45-12.27-4.09-19.84-4.09-13.29,0-21.47,5.32-21.47,15.13v.41c0,8.38,6.95,13.29,16.97,13.29,14.52,0,24.33-7.97,24.33-19.22v-5.52Z"/>
    <path class="st0" d="M470.19,637.63c-16.56,0-26.79-7.57-34.15-16.36v47.03h-31.08v-142.32h31.08v15.75c7.56-10.22,17.99-17.79,34.15-17.79,25.56,0,49.89,20.04,49.89,56.64v.41c0,36.6-23.92,56.64-49.89,56.64ZM489.01,580.58c0-18.2-12.27-30.26-26.79-30.26s-26.58,12.06-26.58,30.26v.41c0,18.2,12.06,30.26,26.58,30.26s26.79-11.86,26.79-30.26v-.41Z"/>
    <path class="st0" d="M607.19,635.58v-11.86c-7.56,8.38-18,13.9-33.12,13.9-20.65,0-37.63-11.86-37.63-33.54v-.41c0-23.92,18.2-34.97,44.17-34.97,11.04,0,19.02,1.84,26.79,4.5v-1.84c0-12.88-7.97-20.04-23.51-20.04-11.86,0-20.24,2.25-30.26,5.93l-7.77-23.72c12.06-5.32,23.92-8.79,42.53-8.79,33.94,0,48.87,17.59,48.87,47.24v63.59h-30.06ZM607.8,591.41c-5.32-2.45-12.27-4.09-19.84-4.09-13.29,0-21.47,5.32-21.47,15.13v.41c0,8.38,6.95,13.29,16.97,13.29,14.52,0,24.33-7.97,24.33-19.22v-5.52Z"/>
  </g>
  <g>
    <path class="st0" d="M523.7,443.39c-.55,1.12-1.3,2.05-2.24,2.8-.95.75-2.06,1.31-3.33,1.7-1.27.39-2.63.58-4.07.58h-5.2v8.39h-4.55v-26.11h10.29c1.52,0,2.89.21,4.12.62,1.23.41,2.28,1,3.13,1.77.86.77,1.52,1.69,1.98,2.76.46,1.07.69,2.28.69,3.62,0,1.47-.27,2.76-.82,3.88ZM518.32,436.06c-1.02-.78-2.4-1.18-4.12-1.18h-5.35v9.44h5.35c1.75,0,3.13-.43,4.14-1.29,1.01-.86,1.52-2,1.52-3.43,0-1.57-.51-2.75-1.53-3.54Z"/>
    <path class="st0" d="M542.16,456.85h-4.63v-21.86h-8.28v-4.25h21.18v4.25h-8.28v21.86Z"/>
    <path class="st0" d="M555.92,443.61v-4.44h11.04v4.44h-11.04Z"/>
    <path class="st0" d="M578.94,430.56h3.21v26.3h-4.55v-21.63l-4.7,1.31-.97-3.73,7.01-2.24Z"/>
    <path class="st0" d="M195.78,471.27v26.11h-4.55v-26.11h4.55Z"/>
    <path class="st0" d="M222.89,471.27h4.55v26.11h-3.83l-14.37-18.57v18.57h-4.55v-26.11h4.24l13.96,18.05v-18.05Z"/>
    <path class="st0" d="M240.16,479.44c.17.37.49.72.95,1.04.46.32,1.1.62,1.91.89.81.28,1.84.56,3.09.86,1.37.35,2.59.73,3.65,1.16,1.06.42,1.94.94,2.64,1.55.7.61,1.23,1.32,1.59,2.13.36.81.54,1.76.54,2.85,0,1.24-.23,2.35-.69,3.32-.46.97-1.09,1.79-1.9,2.46-.81.67-1.79,1.18-2.93,1.53-1.14.35-2.4.52-3.76.52-2.01,0-3.94-.34-5.78-1.03-1.84-.68-3.54-1.73-5.11-3.15l2.76-3.28c1.27,1.09,2.55,1.93,3.84,2.52,1.29.58,2.76.88,4.4.88,1.42,0,2.54-.3,3.37-.9.83-.6,1.25-1.4,1.25-2.42,0-.47-.08-.89-.24-1.27-.16-.37-.46-.72-.9-1.03-.44-.31-1.04-.6-1.8-.88-.76-.27-1.75-.56-2.97-.86-1.4-.32-2.64-.68-3.72-1.08-1.08-.4-1.99-.89-2.73-1.49-.74-.6-1.3-1.32-1.68-2.16-.39-.85-.58-1.88-.58-3.1,0-1.14.22-2.18.66-3.11.44-.93,1.05-1.73,1.83-2.4.78-.67,1.71-1.19,2.8-1.55,1.09-.36,2.28-.54,3.58-.54,1.91,0,3.64.28,5.17.84,1.53.56,2.97,1.37,4.31,2.44l-2.46,3.47c-1.19-.87-2.38-1.54-3.54-2-1.17-.46-2.35-.69-3.54-.69-1.34,0-2.39.3-3.13.91-.75.61-1.12,1.35-1.12,2.22,0,.52.09.97.26,1.34Z"/>
    <path class="st0" d="M272.87,497.38h-4.63v-21.86h-8.28v-4.25h21.18v4.25h-8.28v21.86Z"/>
    <path class="st0" d="M292.71,471.27v26.11h-4.55v-26.11h4.55Z"/>
    <path class="st0" d="M312.67,497.38h-4.63v-21.86h-8.28v-4.25h21.18v4.25h-8.28v21.86Z"/>
    <path class="st0" d="M349.63,486.08c0,1.94-.27,3.64-.8,5.11-.53,1.47-1.29,2.69-2.26,3.67-.97.98-2.14,1.71-3.52,2.2-1.38.49-2.93.73-4.64.73s-3.22-.24-4.59-.73c-1.37-.49-2.54-1.21-3.51-2.18-.97-.97-1.72-2.17-2.24-3.6-.52-1.43-.78-3.09-.78-4.98v-15.03h4.55v14.84c0,2.44.59,4.29,1.76,5.56,1.17,1.27,2.8,1.9,4.88,1.9s3.66-.61,4.84-1.83c1.18-1.22,1.76-3.03,1.76-5.45v-15.03h4.55v14.81Z"/>
    <path class="st0" d="M368.87,497.38h-4.63v-21.86h-8.28v-4.25h21.18v4.25h-8.28v21.86Z"/>
    <path class="st0" d="M409.05,489.51c-.67,1.64-1.62,3.08-2.84,4.31-1.22,1.23-2.66,2.21-4.33,2.93-1.67.72-3.51,1.08-5.52,1.08s-3.85-.35-5.52-1.06c-1.67-.71-3.1-1.67-4.29-2.89-1.19-1.22-2.13-2.65-2.8-4.29-.67-1.64-1.01-3.38-1.01-5.22s.34-3.58,1.01-5.22c.67-1.64,1.62-3.08,2.84-4.31,1.22-1.23,2.66-2.21,4.33-2.93,1.67-.72,3.51-1.08,5.52-1.08s3.85.35,5.52,1.06c1.67.71,3.1,1.67,4.29,2.89,1.19,1.22,2.13,2.65,2.8,4.29.67,1.64,1.01,3.38,1.01,5.22s-.34,3.58-1.01,5.22ZM404.59,480.77c-.43-1.13-1.04-2.12-1.83-2.96-.78-.85-1.72-1.52-2.82-2.02-1.1-.5-2.29-.75-3.58-.75s-2.48.24-3.56.73c-1.08.48-2.01,1.14-2.78,1.98-.77.83-1.37,1.82-1.81,2.95-.44,1.13-.65,2.33-.65,3.6s.22,2.47.65,3.6c.43,1.13,1.04,2.12,1.83,2.97.78.85,1.72,1.52,2.82,2.01,1.09.5,2.29.75,3.58.75s2.48-.24,3.56-.73c1.08-.49,2.01-1.14,2.78-1.98.77-.83,1.37-1.81,1.81-2.95.43-1.13.65-2.33.65-3.6s-.22-2.47-.65-3.6Z"/>
    <path class="st0" d="M434.71,479.44c.17.37.49.72.95,1.04.46.32,1.1.62,1.91.89.81.28,1.84.56,3.09.86,1.37.35,2.59.73,3.65,1.16,1.06.42,1.94.94,2.64,1.55.7.61,1.23,1.32,1.59,2.13.36.81.54,1.76.54,2.85,0,1.24-.23,2.35-.69,3.32-.46.97-1.09,1.79-1.9,2.46-.81.67-1.79,1.18-2.93,1.53-1.14.35-2.4.52-3.76.52-2.01,0-3.94-.34-5.78-1.03-1.84-.68-3.54-1.73-5.11-3.15l2.76-3.28c1.27,1.09,2.55,1.93,3.84,2.52,1.29.58,2.76.88,4.4.88,1.42,0,2.54-.3,3.37-.9.83-.6,1.25-1.4,1.25-2.42,0-.47-.08-.89-.24-1.27-.16-.37-.46-.72-.9-1.03-.44-.31-1.04-.6-1.8-.88-.76-.27-1.75-.56-2.97-.86-1.4-.32-2.64-.68-3.72-1.08-1.08-.4-1.99-.89-2.73-1.49-.74-.6-1.3-1.32-1.68-2.16-.39-.85-.58-1.88-.58-3.1,0-1.14.22-2.18.66-3.11.44-.93,1.05-1.73,1.83-2.4.78-.67,1.71-1.19,2.8-1.55,1.09-.36,2.28-.54,3.58-.54,1.91,0,3.64.28,5.17.84,1.53.56,2.97,1.37,4.31,2.44l-2.46,3.47c-1.19-.87-2.38-1.54-3.54-2-1.17-.46-2.35-.69-3.54-.69-1.34,0-2.39.3-3.13.91-.75.61-1.12,1.35-1.12,2.22,0,.52.09.97.26,1.34Z"/>
    <path class="st0" d="M478.31,486.08c0,1.94-.27,3.64-.8,5.11-.53,1.47-1.29,2.69-2.26,3.67-.97.98-2.14,1.71-3.52,2.2-1.38.49-2.93.73-4.64.73s-3.22-.24-4.59-.73c-1.37-.49-2.54-1.21-3.51-2.18-.97-.97-1.72-2.17-2.24-3.6-.52-1.43-.78-3.09-.78-4.98v-15.03h4.55v14.84c0,2.44.59,4.29,1.76,5.56,1.17,1.27,2.8,1.9,4.88,1.9s3.66-.61,4.84-1.83c1.18-1.22,1.76-3.03,1.76-5.45v-15.03h4.55v14.81Z"/>
    <path class="st0" d="M505.91,483.92c-.55,1.12-1.3,2.05-2.24,2.8-.95.75-2.06,1.31-3.33,1.7-1.27.39-2.63.58-4.07.58h-5.2v8.39h-4.55v-26.11h10.29c1.52,0,2.89.21,4.12.62,1.23.41,2.28,1,3.13,1.77.86.77,1.52,1.69,1.98,2.76.46,1.07.69,2.28.69,3.62,0,1.47-.27,2.76-.82,3.88ZM500.53,476.59c-1.02-.78-2.4-1.18-4.12-1.18h-5.35v9.44h5.35c1.75,0,3.13-.43,4.14-1.29,1.01-.86,1.52-2,1.52-3.43,0-1.57-.51-2.75-1.53-3.54Z"/>
    <path class="st0" d="M532.65,475.42h-14.77v6.71h13.09v4.14h-13.09v6.98h14.96v4.14h-19.51v-26.11h19.32v4.14Z"/>
    <path class="st0" d="M556.97,497.38l-6.43-9.1h-5.76v9.1h-4.55v-26.11h11.64c1.49,0,2.84.19,4.05.58,1.21.39,2.22.93,3.06,1.64.83.71,1.47,1.58,1.92,2.61.45,1.03.67,2.18.67,3.45,0,1.1-.16,2.07-.47,2.93-.31.86-.74,1.62-1.29,2.28-.55.66-1.2,1.22-1.96,1.68-.76.46-1.6.82-2.52,1.06l7.05,9.88h-5.41ZM555.47,476.52c-.95-.74-2.28-1.11-4-1.11h-6.7v8.8h6.74c1.65,0,2.96-.4,3.93-1.2.97-.8,1.46-1.87,1.46-3.22,0-1.45-.47-2.54-1.42-3.28Z"/>
    <path class="st0" d="M573.9,471.27v26.11h-4.55v-26.11h4.55Z"/>
    <path class="st0" d="M607.95,489.51c-.67,1.64-1.62,3.08-2.84,4.31-1.22,1.23-2.66,2.21-4.33,2.93-1.67.72-3.51,1.08-5.52,1.08s-3.85-.35-5.52-1.06c-1.67-.71-3.1-1.67-4.29-2.89-1.19-1.22-2.13-2.65-2.8-4.29-.67-1.64-1.01-3.38-1.01-5.22s.34-3.58,1.01-5.22c.67-1.64,1.62-3.08,2.84-4.31,1.22-1.23,2.66-2.21,4.33-2.93,1.67-.72,3.51-1.08,5.52-1.08s3.85.35,5.52,1.06c1.67.71,3.1,1.67,4.29,2.89,1.19,1.22,2.13,2.65,2.8,4.29.67,1.64,1.01,3.38,1.01,5.22s-.34,3.58-1.01,5.22ZM603.5,480.77c-.43-1.13-1.04-2.12-1.83-2.96-.78-.85-1.72-1.52-2.82-2.02-1.1-.5-2.29-.75-3.58-.75s-2.48.24-3.56.73c-1.08.48-2.01,1.14-2.78,1.98-.77.83-1.37,1.82-1.81,2.95-.44,1.13-.65,2.33-.65,3.6s.22,2.47.65,3.6c.43,1.13,1.04,2.12,1.83,2.97.78.85,1.72,1.52,2.82,2.01,1.09.5,2.29.75,3.58.75s2.48-.24,3.56-.73c1.08-.49,2.01-1.14,2.78-1.98.77-.83,1.37-1.81,1.81-2.95.43-1.13.65-2.33.65-3.6s-.22-2.47-.65-3.6Z"/>
    <path class="st0" d="M633.17,497.38l-6.43-9.1h-5.76v9.1h-4.55v-26.11h11.64c1.49,0,2.84.19,4.05.58,1.21.39,2.22.93,3.06,1.64.83.71,1.47,1.58,1.92,2.61.45,1.03.67,2.18.67,3.45,0,1.1-.16,2.07-.47,2.93-.31.86-.74,1.62-1.29,2.28-.55.66-1.2,1.22-1.96,1.68-.76.46-1.6.82-2.52,1.06l7.05,9.88h-5.41ZM631.67,476.52c-.95-.74-2.28-1.11-4-1.11h-6.7v8.8h6.74c1.65,0,2.96-.4,3.93-1.2.97-.8,1.46-1.87,1.46-3.22,0-1.45-.47-2.54-1.42-3.28Z"/>
    <path class="st0" d="M599.59,458.3c-3.11,0-5.6-.94-7.47-2.81-1.1-1.1-1.93-2.46-2.48-4.06-.55-1.6-.83-3.72-.83-6.34,0-4.29,1.01-7.81,3.02-10.55,2.02-2.75,4.86-4.12,8.53-4.12,3,0,5.75,1,8.24,3l-2.54,3.66c-2.03-1.57-3.98-2.35-5.86-2.35s-3.49.79-4.6,2.37c-1.12,1.58-1.74,3.64-1.87,6.18,1.85-1.8,3.99-2.7,6.43-2.7,2.72,0,4.97.76,6.76,2.29,1.78,1.53,2.68,3.62,2.68,6.26s-.96,4.83-2.87,6.57c-1.91,1.73-4.3,2.6-7.15,2.6ZM599.48,454.22c1.64,0,2.95-.46,3.93-1.39.98-.92,1.46-2.12,1.46-3.58,0-1.36-.51-2.49-1.52-3.37-1.01-.89-2.34-1.33-3.99-1.33s-2.97.46-3.97,1.39c-1,.92-1.5,2.07-1.5,3.43s.51,2.54,1.54,3.47c1.03.92,2.38,1.39,4.04,1.39Z"/>
    <path class="st0" d="M624.86,458.3c-3.11,0-5.6-.94-7.47-2.81-1.1-1.1-1.93-2.46-2.48-4.06-.55-1.6-.83-3.72-.83-6.34,0-4.29,1.01-7.81,3.02-10.55,2.02-2.75,4.86-4.12,8.53-4.12,3,0,5.75,1,8.24,3l-2.54,3.66c-2.03-1.57-3.98-2.35-5.86-2.35s-3.49.79-4.6,2.37c-1.12,1.58-1.74,3.64-1.87,6.18,1.85-1.8,3.99-2.7,6.43-2.7,2.72,0,4.97.76,6.76,2.29,1.78,1.53,2.68,3.62,2.68,6.26s-.96,4.83-2.87,6.57c-1.91,1.73-4.3,2.6-7.15,2.6ZM624.75,454.22c1.64,0,2.95-.46,3.93-1.39.98-.92,1.46-2.12,1.46-3.58,0-1.36-.51-2.49-1.52-3.37-1.01-.89-2.34-1.33-3.99-1.33s-2.97.46-3.97,1.39c-1,.92-1.5,2.07-1.5,3.43s.51,2.54,1.54,3.47c1.03.92,2.38,1.39,4.04,1.39Z"/>
  </g>
</svg>