<?xml version="1.0" encoding="UTF-8"?>
<svg id="Capa_1" xmlns="http://www.w3.org/2000/svg" version="1.1" viewBox="0 0 1080 1080">
  <!-- Generator: Adobe Illustrator 29.5.0, SVG Export Plug-In . SVG Version: 2.1.0 Build 137)  -->
  <defs>
    <style>
      .st0 {
        fill: #62398d;
      }
    </style>
  </defs>
  <g>
    <g>
      <path class="st0" d="M579.52,677.66c-4.63,0-8.61,1.62-11.96,4.87-1.76,1.7-3.15,3.78-4.19,6.2v-37.37c-1.52.49-3.2.85-5.02,1.09-1.83.24-3.75.36-5.75.36s-4.21-.1-6.42-.31v2.18c3.04,0,5.11.74,6.21,2.22,1.1,1.48,1.66,3.78,1.66,6.88v63.57c0,1.04-.05,2.05-.15,3.06-.1,1-.29,1.98-.57,2.95l1.76.73c.97-.83,1.9-1.62,2.8-2.38.89-.76,1.81-1.53,2.74-2.33.61-.52,1.2-1.02,1.8-1.53,1.08,1.2,2.3,2.23,3.69,3.08,3.21,1.97,6.54,2.95,9.99,2.95,4.14,0,7.97-1.04,11.49-3.11,3.52-2.07,6.33-5.19,8.44-9.37,2.1-4.17,3.16-9.37,3.16-15.58,0-9.45-1.87-16.51-5.59-21.17-3.73-4.66-8.42-6.99-14.08-6.99ZM585.68,725.24c-2.32,4.17-5.78,6.26-10.41,6.26-2.69,0-5.32-.67-7.87-2.02-1.49-.79-2.83-1.85-4.04-3.12v-32.85c.87-3.53,2.29-6.35,4.3-8.45,2.73-2.86,5.68-4.3,8.85-4.3,2.9,0,5.28.92,7.15,2.74,1.86,1.83,3.24,4.61,4.14,8.34.9,3.73,1.35,8.39,1.35,13.98,0,8.77-1.16,15.24-3.47,19.42Z"/>
      <path class="st0" d="M646.4,679.42c-1.04,0-1.98-.02-2.85-.05-.86-.03-1.74-.07-2.64-.1-.9-.03-1.97-.09-3.21-.15v2.07c2.49.14,4.35.55,5.59,1.24,1.24.69,1.95,1.71,2.12,3.06.17,1.35-.19,3.16-1.09,5.44l-11.46,29.96-12.46-30.89c-1.17-2.9-1.59-4.95-1.24-6.16.34-1.21,1.19-1.93,2.53-2.17,1.35-.24,2.88-.36,4.61-.36v-2.17c-2.07.14-4.3.27-6.68.41-2.38.14-4.64.21-6.78.21-1.93,0-3.73-.05-5.38-.15-1.66-.1-3.24-.26-4.76-.47v2.17c.83,0,1.88.29,3.16.88,1.28.59,2.57,2.23,3.88,4.92l18.78,45.21-3.66,9.46c-1.11,2.83-2.38,4.88-3.83,6.16-1.45,1.28-3.11,1.92-4.97,1.92h-.26c-.1,0-.22-.03-.36-.1.76-.42,1.41-1,1.97-1.76.55-.76.83-1.73.83-2.9,0-1.59-.52-2.8-1.55-3.63-1.04-.83-2.28-1.24-3.73-1.24-1.73,0-3.07.5-4.04,1.5-.97,1-1.45,2.33-1.45,3.99,0,1.31.31,2.43.93,3.36.62.93,1.46,1.64,2.53,2.12,1.07.48,2.26.72,3.57.72,1.24,0,2.62-.19,4.14-.57,1.52-.38,2.83-1.09,3.93-2.12.83-.76,1.6-1.73,2.33-2.9.72-1.17,1.43-2.62,2.12-4.35l3.52-9.01,16.98-44.52c.96-2.62,2-4.45,3.11-5.49,1.1-1.04,2.31-1.62,3.63-1.76v-2.07c-1.11.07-2.29.14-3.57.2-1.28.07-2.71.1-4.3.1Z"/>
    </g>
    <g>
      <path class="st0" d="M736.9,701.27c-1.52,0-3.2-.02-5.02-.05-1.83-.03-3.57-.07-5.23-.1-1.66-.03-3.11-.09-4.35-.15v2.07c2.9.07,5.09.35,6.57.83,1.48.49,2.5,1.42,3.06,2.79.55,1.38.83,3.49.83,6.32v9.94c0,1.31-.17,2.36-.52,3.16-.35.79-1.17,1.64-2.49,2.54-1.04.69-2.47,1.4-4.3,2.12-1.83.72-3.99,1.09-6.47,1.09-8.42,0-14.63-2.88-18.63-8.64-4-5.76-6.01-14.86-6.01-27.28,0-5.59.53-10.61,1.6-15.07,1.07-4.45,2.6-8.27,4.61-11.44,2-3.17,4.4-5.61,7.2-7.3,2.79-1.69,5.92-2.54,9.37-2.54s6.8.71,10.04,2.12c3.24,1.41,5.87,3.4,7.87,5.95,1.59,1.93,2.73,4.24,3.42,6.94.69,2.69,1.28,5.49,1.76,8.39h2.39c0-6.01.03-10.84.1-14.5.07-3.66.17-6.76.31-9.32h-2.38c-.42,4.21-1.28,6.32-2.59,6.32-.49,0-1.18-.35-2.07-1.04-2.42-1.79-5.01-3.36-7.77-4.71-2.76-1.35-6.39-2.02-10.87-2.02-6.42,0-12.13,1.6-17.14,4.81-5.01,3.21-8.96,7.75-11.85,13.62-2.9,5.87-4.35,12.84-4.35,20.91s1.34,14.26,4.04,19.78c2.69,5.52,6.57,9.75,11.65,12.68,5.07,2.93,11.16,4.4,18.27,4.4,3.38,0,6.35-.5,8.91-1.5,2.55-1,4.97-2.36,7.25-4.09,1.04-.76,1.76-1.24,2.17-1.45.42-.21.83-.31,1.24-.31.89,0,1.57.69,2.02,2.07.45,1.38.71,2.66.78,3.83h2.07v-20.5c0-2.55.12-4.45.37-5.7s.74-2.07,1.5-2.49c.76-.41,1.9-.66,3.42-.72v-2.07c-1.24.07-2.78.14-4.61.2-1.83.07-3.88.11-6.16.11Z"/>
      <path class="st0" d="M802.9,728.14c-1.14-1.48-1.71-3.78-1.71-6.88v-43.28c-1.52.49-3.2.85-5.02,1.09-1.83.24-3.75.36-5.75.36s-4.21-.1-6.42-.31v2.17c3.04,0,5.11.74,6.21,2.22,1.1,1.49,1.66,3.78,1.66,6.89v21.44c0,3.52-.6,6.69-1.81,9.53-1.21,2.83-2.87,5.07-4.97,6.73-2.1,1.66-4.5,2.48-7.2,2.48-2.48,0-4.28-.55-5.38-1.66-1.1-1.1-1.8-2.55-2.07-4.35-.27-1.79-.41-3.76-.41-5.9v-40.69c-1.52.49-3.2.85-5.02,1.09-1.83.24-3.75.36-5.75.36s-4.21-.1-6.42-.31v2.17c3.04,0,5.11.74,6.21,2.22,1.1,1.49,1.66,3.78,1.66,6.89v25.99c0,3.25.24,5.97.72,8.18.49,2.21,1.38,4,2.69,5.38,1.17,1.24,2.66,2.21,4.45,2.9,1.8.69,3.9,1.04,6.32,1.04,3.31,0,6.54-.95,9.68-2.85,3.14-1.9,5.57-5.09,7.3-9.58v12.22c1.52-.55,3.19-.93,5.02-1.14,1.83-.21,3.75-.31,5.75-.31,2.14,0,4.28.1,6.42.31v-2.17c-2.97,0-5.03-.74-6.16-2.23Z"/>
      <path class="st0" d="M859.17,729.23c-.69.35-1.42.52-2.17.52-1.11,0-1.92-.38-2.44-1.14-.52-.76-.78-2-.78-3.73v-28.79c0-3.31-.27-6.16-.83-8.54-.55-2.38-1.73-4.4-3.52-6.06-1.31-1.24-2.97-2.19-4.97-2.85-2-.65-4.42-.98-7.25-.98-3.18,0-6.02.4-8.54,1.19-2.52.79-4.57,1.74-6.16,2.85-1.38.97-2.52,2-3.42,3.11-.9,1.11-1.35,2.55-1.35,4.35,0,1.59.47,3.02,1.4,4.3.93,1.28,2.4,1.91,4.4,1.91,1.72,0,3.14-.5,4.24-1.5,1.11-1,1.66-2.36,1.66-4.09s-.48-3.14-1.45-4.24c-.97-1.1-2.11-1.79-3.42-2.07,1.17-1.52,2.74-2.52,4.71-3,1.97-.48,3.81-.72,5.54-.72s3.42.26,4.87.77c1.45.52,2.6,1.54,3.47,3.06.86,1.52,1.29,3.73,1.29,6.63v6.42c0,1.59-.71,2.86-2.12,3.83-1.41.97-3.23,1.81-5.43,2.54-2.21.72-4.54,1.48-6.99,2.27-2.45.8-4.78,1.78-6.99,2.95-2.21,1.18-4.02,2.73-5.43,4.66-1.42,1.93-2.12,4.42-2.12,7.45,0,2.55.53,4.8,1.6,6.73,1.07,1.93,2.64,3.43,4.71,4.5,2.07,1.07,4.52,1.6,7.35,1.6,3.24,0,6.16-.76,8.75-2.28,2.59-1.52,4.81-3.83,6.68-6.94,0,2.07.33,3.78.98,5.13.65,1.34,1.64,2.36,2.95,3.05,1.31.69,2.97,1.04,4.97,1.04,2.21,0,3.97-.36,5.28-1.09,1.31-.73,2.69-1.64,4.14-2.74l-1.14-1.76c-.97.76-1.79,1.31-2.48,1.66ZM844.47,721.15c-1.59,2.62-3.36,4.59-5.33,5.9-1.97,1.31-4.09,1.97-6.37,1.97-2.55,0-4.57-.83-6.06-2.49-1.48-1.66-2.22-3.86-2.22-6.63s.55-5,1.66-6.73c1.11-1.73,2.5-3.12,4.19-4.19,1.69-1.07,3.47-2,5.33-2.79,1.86-.79,3.58-1.59,5.18-2.38,1.58-.79,2.79-1.78,3.62-2.95v20.29Z"/>
      <path class="st0" d="M908.77,680.61c-2.9-1.97-6.18-2.95-9.84-2.95-4.76,0-8.85,1.62-12.27,4.87-1.81,1.72-3.23,3.81-4.3,6.27v-10.82c-1.52.48-3.19.85-5.02,1.09-1.83.24-3.75.36-5.75.36s-4.21-.1-6.42-.31v2.17c3.04,0,5.11.74,6.21,2.22,1.11,1.48,1.66,3.78,1.66,6.89v52.19c0,2.49-.52,4.17-1.55,5.07-1.04.9-2.79,1.35-5.28,1.35v2.17c1.11-.07,2.71-.16,4.82-.26,2.1-.1,4.22-.16,6.37-.16,3.04,0,5.9.05,8.59.16,2.69.1,4.8.19,6.32.26v-2.17c-3.11,0-5.54-.5-7.3-1.5-1.76-1-2.64-2.99-2.64-5.95v-13.38c.9,1.28,2.1,2.43,3.68,3.44,2.38,1.52,5.2,2.28,8.44,2.28,4.21,0,7.82-.88,10.82-2.64,3-1.76,5.45-4.1,7.35-7.04,1.9-2.93,3.29-6.21,4.19-9.84.9-3.62,1.35-7.3,1.35-11.03,0-5.59-.84-10.29-2.54-14.08-1.69-3.79-3.99-6.68-6.89-8.64ZM906.85,718.2c-.86,4.04-2.37,7.27-4.5,9.68-2.14,2.42-5.14,3.63-9.01,3.63-2.76,0-5.06-.66-6.89-1.97-1.77-1.27-3.13-2.83-4.09-4.69v-31.03c.94-3.78,2.46-6.73,4.56-8.85,2.76-2.8,5.83-4.19,9.22-4.19,2.62,0,4.83.86,6.62,2.59,1.8,1.73,3.14,4.35,4.04,7.87.89,3.52,1.34,8.04,1.34,13.57,0,4.9-.43,9.37-1.29,13.41Z"/>
      <path class="st0" d="M970.89,729.23c-.69.35-1.42.52-2.17.52-1.11,0-1.92-.38-2.44-1.14-.52-.76-.78-2-.78-3.73v-28.79c0-3.31-.27-6.16-.83-8.54-.55-2.38-1.73-4.4-3.52-6.06-1.31-1.24-2.97-2.19-4.97-2.85-2-.65-4.42-.98-7.25-.98-3.18,0-6.02.4-8.54,1.19-2.52.79-4.57,1.74-6.16,2.85-1.38.97-2.52,2-3.42,3.11-.9,1.11-1.35,2.55-1.35,4.35,0,1.59.47,3.02,1.4,4.3.93,1.28,2.4,1.91,4.4,1.91,1.72,0,3.14-.5,4.24-1.5,1.11-1,1.66-2.36,1.66-4.09s-.48-3.14-1.45-4.24c-.97-1.1-2.11-1.79-3.42-2.07,1.17-1.52,2.74-2.52,4.71-3,1.97-.48,3.81-.72,5.54-.72s3.42.26,4.87.77c1.45.52,2.6,1.54,3.47,3.06.86,1.52,1.29,3.73,1.29,6.63v6.42c0,1.59-.71,2.86-2.12,3.83-1.41.97-3.23,1.81-5.43,2.54-2.21.72-4.54,1.48-6.99,2.27-2.45.8-4.78,1.78-6.99,2.95-2.21,1.18-4.02,2.73-5.43,4.66-1.42,1.93-2.12,4.42-2.12,7.45,0,2.55.53,4.8,1.6,6.73,1.07,1.93,2.64,3.43,4.71,4.5,2.07,1.07,4.52,1.6,7.35,1.6,3.24,0,6.16-.76,8.75-2.28,2.59-1.52,4.81-3.83,6.68-6.94,0,2.07.33,3.78.99,5.13.65,1.34,1.64,2.36,2.95,3.05,1.31.69,2.97,1.04,4.97,1.04,2.21,0,3.97-.36,5.28-1.09,1.31-.73,2.69-1.64,4.14-2.74l-1.14-1.76c-.97.76-1.79,1.31-2.48,1.66ZM956.19,721.15c-1.59,2.62-3.36,4.59-5.33,5.9-1.97,1.31-4.09,1.97-6.37,1.97-2.55,0-4.57-.83-6.06-2.49-1.48-1.66-2.22-3.86-2.22-6.63s.55-5,1.66-6.73c1.11-1.73,2.5-3.12,4.19-4.19,1.69-1.07,3.47-2,5.33-2.79,1.86-.79,3.58-1.59,5.18-2.38,1.58-.79,2.79-1.78,3.62-2.95v20.29Z"/>
      <path class="st0" d="M1014.12,712.04c-1.28-2.07-2.99-3.97-5.13-5.7-2.14-1.72-4.52-3.41-7.15-5.07-2.35-1.52-4.52-2.91-6.52-4.19-2-1.28-3.63-2.66-4.87-4.14-1.24-1.48-1.86-3.26-1.86-5.33,0-2.62.81-4.61,2.43-5.95,1.62-1.35,3.64-2.02,6.06-2.02,3.11,0,5.63.78,7.56,2.33,1.93,1.55,3.4,3.54,4.4,5.95,1,2.42,1.71,4.9,2.12,7.45h2.38c0-4.49.03-8.06.1-10.72.07-2.66.17-4.95.31-6.89h-2.38c-.48,4.35-1.86,5.59-4.14,3.73-.9-.76-2.31-1.58-4.24-2.48-1.93-.9-4.28-1.35-7.04-1.35s-5.21.47-7.56,1.4c-2.35.93-4.23,2.38-5.64,4.35-1.42,1.97-2.12,4.51-2.12,7.61,0,2.83.67,5.25,2.02,7.25,1.34,2,3.11,3.8,5.28,5.38,2.17,1.59,4.5,3.18,6.99,4.76,3.38,2.14,6.18,4.18,8.39,6.11,2.21,1.93,3.31,4.42,3.31,7.45,0,2.42-.48,4.35-1.45,5.8-.96,1.45-2.16,2.49-3.57,3.11-1.41.62-2.81.93-4.19.93-3.45,0-6.14-.81-8.08-2.43-1.93-1.62-3.35-3.88-4.24-6.78-.9-2.9-1.59-6.28-2.07-10.14h-2.38c0,5.25-.03,9.46-.1,12.63-.07,3.18-.17,5.87-.31,8.08h2.38c.27-1.73.69-2.88,1.24-3.47.55-.58,1.17-.6,1.86-.05.69.55,1.4,1.07,2.12,1.55.72.48,1.43.9,2.12,1.24,1.25.48,2.54.84,3.88,1.09,1.35.24,2.78.36,4.3.36,3.17,0,6.09-.55,8.75-1.66,2.66-1.11,4.81-2.73,6.47-4.87,1.66-2.14,2.48-4.8,2.48-7.97,0-2.83-.64-5.28-1.91-7.35Z"/>
    </g>
  </g>
  <g>
    <path class="st0" d="M276.17,463.06c6.7-11.45,13.49-23.55,20.36-36.31,6.87-12.75,12.67-24.53,17.42-35.32,4.74-10.8,7.11-18.81,7.11-24.04.32-2.94.41-6.7.25-11.28-.17-4.58-1.23-8.66-3.19-12.27-1.96-3.6-5.73-5.4-11.28-5.4-3.27,14.4-9.08,30.17-17.42,47.34-8.34,17.17-17.83,34.84-28.45,52.99-10.63,18.15-21.51,36.06-32.63,53.73-8.51.33-18.24.9-29.19,1.72-10.96.82-22.08,1.56-33.36,2.21-11.28.66-21.51,1.15-30.67,1.47l5.4-8.34c3.92-6.21,9.24-15.04,15.94-26.49,6.7-11.45,13.5-23.55,20.36-36.31,6.87-12.75,12.67-24.53,17.42-35.32,4.74-10.8,7.28-18.81,7.61-24.04.32-2.94.41-6.7.25-11.28-.17-4.58-1.23-8.66-3.19-12.27-1.96-3.6-5.73-5.4-11.28-5.4-3.61,15.05-9.65,31.4-18.16,49.06-8.51,17.66-18.32,35.82-29.44,54.46-11.13,18.64-22.41,37.29-33.86,55.93-6.22-.32-12.1-.81-17.66-1.47-5.56-.65-9.81-1.47-12.75-2.45-.66,2.29.32,6.38,2.94,12.27,2.61,5.89,7.52,9.81,14.72,11.77-3.6,5.89-7.69,12.19-12.27,18.89-4.58,6.71-8.58,13.58-12.02,20.61-3.43,7.04-5.15,14.15-5.15,21.34,0,9.49,1.23,16.52,3.68,21.1,2.46,4.58,6.13,8.17,11.04,10.79.98-4.58,3.59-11.85,7.85-21.83,4.25-9.98,9.48-20.86,15.7-32.63,3.6-6.54,7.19-13.25,10.79-20.12,3.6-6.87,7.19-13.41,10.79-19.63,10.47-1.3,23.96-2.77,40.48-4.42,16.51-1.63,34.75-2.95,54.7-3.93-1.31,1.96-2.62,4.09-3.93,6.38-3.6,5.89-7.93,12.51-13,19.87-5.08,7.36-9.49,14.89-13.25,22.57-3.76,7.69-5.64,14.96-5.64,21.83,0,9.49,1.23,16.52,3.68,21.1,2.45,4.58,6.29,8.17,11.53,10.79.65-4.58,3.11-11.85,7.36-21.83,4.25-9.98,9.48-20.86,15.7-32.63,4.24-8.17,8.75-16.44,13.49-24.78,4.74-8.34,9.24-16.11,13.49-23.31,6.21.33,12.02.9,17.42,1.72,5.4.82,8.75,2.05,10.06,3.68,0-4.25-1.15-8.5-3.43-12.76-2.29-4.25-7.2-7.03-14.72-8.34l1.96-2.95c4.25-6.21,9.73-15.04,16.44-26.49Z"/>
    <path class="st0" d="M1002.04,549.66c3.6-4.41,7.19-8.74,10.8-13,1.3-1.3,1.96-2.77,1.96-4.42,0-2.95-.98-4.42-2.95-4.42-.66,0-1.47.49-2.45,1.47-2.62,3.61-5.4,7.04-8.34,10.31-2.94,3.27-6.22,6.7-9.81,10.3-6.22,7.2-13,14.23-20.36,21.1-7.36,6.87-14.64,12.1-21.83,15.7-4.59,2.62-8.02,3.93-10.31,3.93-3.27,0-4.9-2.13-4.9-6.38,0-2.61.65-5.89,1.96-9.81,1.3-3.93,2.94-8.17,4.91-12.76,3.6-8.17,7.77-16.68,12.51-25.51,4.74-8.83,8.91-16.44,12.51-22.81,3.59-6.38,5.4-9.73,5.4-10.06,1.63-3.27,1.14-5.56-1.47-6.87-2.62-1.3-5.89-1.96-9.81-1.96-3.27,0-6.46.49-9.57,1.47-3.11.98-5.32,2.29-6.62,3.93-1.31,1.64-2.7,3.6-4.17,5.89-1.47,2.29-3.03,4.74-4.66,7.36-4.25,4.9-9.98,11.7-17.17,20.36-7.2,8.67-14.97,17.42-23.31,26.25-8.34,8.83-16.43,16.36-24.28,22.57-10.79,8.18-18.97,12.27-24.53,12.27-4.91,0-7.36-2.94-7.36-8.83,0-2.61.41-5.8,1.23-9.57.81-3.76,2.37-8.1,4.66-13,4.58-11.12,11.44-23.47,20.61-37.04,9.15-13.57,19.29-26.25,30.42-38.02,10.13-10.47,20.43-19.46,30.91-26.98,10.46-7.52,19.79-11.28,27.97-11.28,9.48,0,16.35,5.56,20.61,16.68,1.3,3.93,3.43,5.89,6.38,5.89,4.25,0,6.38-2.45,6.38-7.36,0-1.63-.57-3.51-1.72-5.64-1.15-2.12-3.19-4.33-6.13-6.62-5.89-4.9-11.94-8.42-18.15-10.55-6.22-2.12-12.6-3.19-19.13-3.19-12.44,0-25.44,4.01-39,12.02-13.58,8.02-26.42,18.4-38.52,31.16-12.1,12.75-22.57,26.17-31.4,40.23-1.5,2.58-3.1,5.62-4.79,9.05-2.16,2.47-4.32,4.99-6.49,7.63-2.94,3.6-6.22,7.36-9.81,11.28-3.6,4.26-8.51,9.57-14.72,15.95-6.22,6.38-12.68,12.02-19.38,16.93-6.71,4.9-13.17,7.36-19.38,7.36-2.94,0-4.42-1.8-4.42-5.4s1.39-8.58,4.17-14.96c2.77-6.38,6.13-13.08,10.06-20.12,3.92-7.03,7.61-13.32,11.04-18.89,3.43-5.56,5.8-9.32,7.11-11.28,6.87-10.47,13.74-21.17,20.61-32.14,6.87-10.96,10.3-20.52,10.3-28.7,0-5.56-1.96-9.97-5.89-13.25-3.92-3.27-8.51-4.9-13.74-4.9-6.87,0-14.64,2.86-23.31,8.58-8.67,5.73-17.5,13.09-26.49,22.08-9,9-17.58,18.32-25.76,27.97-8.18,9.66-15.38,18.57-21.59,26.74-6.22,8.18-10.79,14.07-13.74,17.66,5.56-13.08,11.61-25.76,18.16-38.02,6.54-12.27,11.44-21.35,14.72-27.23,4.58-8.5,8.91-16.11,13-22.82,4.08-6.7,6.62-11.2,7.6-13.49-3.27-.98-7.04-1.47-11.28-1.47-5.23,0-10.63,1.23-16.19,3.68-5.57,2.45-10.14,6.95-13.74,13.49-11.42,23.46-21.58,46.69-30.53,69.71-.12-.01-.24-.04-.38-.04-.66,0-1.47.49-2.46,1.47-2.62,3.61-5.39,7.11-8.34,10.55-2.94,3.44-6.06,6.96-9.32,10.55-4.26,4.26-8.1,8.09-11.53,11.53-3.43,3.43-6.95,6.79-10.55,10.06-3.6,2.94-9,6.87-16.19,11.77-7.2,4.91-14.89,9.25-23.06,13-8.18,3.76-15.87,5.64-23.06,5.64-4.59,0-8.43-1.39-11.53-4.17-3.11-2.77-4.66-7.43-4.66-13.98,0-1.63.08-3.19.24-4.66.16-1.47.41-3.02.74-4.66.65-3.59,1.47-7.43,2.45-11.53.98-4.09,2.12-8.26,3.43-12.51,20.28-4.58,38.35-11.53,54.22-20.85,15.86-9.32,30.33-22.32,43.42-39.01,3.59-4.58,6.21-8.99,7.85-13.25,1.63-4.25,2.45-8.01,2.45-11.29,0-8.17-3.19-14.72-9.57-19.62-6.38-4.91-13.98-7.36-22.82-7.36-9.49,0-19.87,3.52-31.15,10.55-11.28,7.04-22.25,16.27-32.87,27.72-10.63,11.45-19.71,24.04-27.23,37.78-2.03,3.51-4.09,7.78-6.18,12.75-.36.24-.75.56-1.18.98-4.91,5.89-9.9,11.7-14.97,17.42-5.08,5.73-10.88,11.86-17.42,18.4-4.25,4.58-10.06,9.81-17.42,15.7-7.36,5.89-13.98,8.83-19.87,8.83-7.53,0-11.28-5.56-11.28-16.68,0-7.85,2.12-17.98,6.38-30.42,7.52-21.26,16.59-42.03,27.23-62.31,10.62-20.28,23.14-42.85,37.53-67.71,11.44-19.29,22.24-35.82,32.38-49.56,10.13-13.74,19.46-25.34,27.97-34.83-5.24-.32-12.02,1.47-20.36,5.4-8.34,3.93-17.75,11.28-28.21,22.08-10.47,10.79-21.75,26.17-33.85,46.12-5.56,9.49-11.77,20.78-18.64,33.86-6.87,13.08-13.58,26.66-20.12,40.72-6.55,14.07-12.44,27.65-17.66,40.72-8.18,9.81-17.42,19.87-27.72,30.17-10.3,10.3-20.04,19.22-29.19,26.74-3.6,3.27-9.08,7.12-16.44,11.53-7.36,4.42-15.21,8.34-23.55,11.77-8.34,3.43-16.12,5.15-23.31,5.15-4.59,0-8.43-1.39-11.53-4.17-3.11-2.77-4.66-7.43-4.66-13.98,0-1.63.08-3.19.24-4.66.16-1.47.41-3.02.74-4.66.65-3.59,1.47-7.43,2.45-11.53.98-4.09,2.12-8.26,3.43-12.51,20.28-4.58,38.35-11.53,54.22-20.85,15.86-9.32,30.33-22.32,43.42-39.01,3.6-4.58,6.21-8.99,7.85-13.25,1.63-4.25,2.45-8.01,2.45-11.29,0-8.17-3.19-14.72-9.57-19.62-6.38-4.91-13.98-7.36-22.81-7.36-9.49,0-19.87,3.52-31.16,10.55-11.28,7.04-22.25,16.27-32.87,27.72-10.63,11.45-19.71,24.04-27.23,37.78-3.6,6.22-7.28,14.72-11.04,25.51-3.76,10.79-5.64,21.1-5.64,30.91,0,12.75,3.6,22.65,10.79,29.68,7.19,7.03,16.84,10.55,28.95,10.55,15.37,0,29.27-3.52,41.7-10.55,12.43-7.03,22.57-13.98,30.42-20.85,5.89-5.56,12.51-11.85,19.87-18.89,7.36-7.03,14.15-13.66,20.36-19.87-1.31,3.92-2.38,7.6-3.19,11.04-.82,3.43-1.55,6.46-2.2,9.08-.66,3.27-1.15,6.3-1.47,9.08-.33,2.78-.49,5.32-.49,7.61,0,10.14,2.12,17.26,6.38,21.34,4.25,4.09,9.48,6.13,15.7,6.13,6.87,0,14.3-1.96,22.32-5.89,8.01-3.92,14.8-8.5,20.36-13.74,3.59-3.59,7.44-7.43,11.53-11.53,4.08-4.09,7.76-8.26,11.04-12.51,3.93-4.25,7.61-8.58,11.04-13,.41-.53.84-1.05,1.25-1.58-2.3,8.26-3.46,16.24-3.46,23.9,0,12.75,3.59,22.65,10.79,29.68,7.19,7.03,16.84,10.55,28.95,10.55,15.37,0,29.35-3.77,41.95-11.28,12.59-7.52,22.48-15.04,29.68-22.57,6.21-6.54,12.27-13.32,18.16-20.36,3.24-3.87,6.48-7.77,9.72-11.69-8.25,19.92-18.02,40.41-29.35,61.49,2.29-1.31,4.42-2.05,6.38-2.21,1.96-.17,4.58-.24,7.85-.24,4.58-.33,8.26-.74,11.04-1.23,2.78-.49,4.99-2.21,6.63-5.15,3.59-6.21,6.86-12.18,9.81-17.91,2.94-5.72,6.38-11.36,10.3-16.93,6.87-9.48,14.15-19.29,21.83-29.44,7.68-10.13,15.62-19.63,23.8-28.46,1.96-2.61,5.8-6.87,11.53-12.75,5.72-5.89,11.85-12.02,18.4-18.4,6.54-6.38,12.67-11.94,18.4-16.68,5.72-4.74,9.57-7.12,11.53-7.12,2.28,0,3.43.98,3.43,2.94,0,5.23-2.13,11.7-6.38,19.38-4.25,7.69-9.57,16.12-15.94,25.27-6.38,9.16-12.68,18.57-18.89,28.21-6.21,9.65-11.45,19.06-15.7,28.21-4.25,9.16-6.38,17.66-6.38,25.51,0,7.2,1.39,13.25,4.17,18.15,2.78,4.9,8.26,7.36,16.44,7.36,12.1,0,25.18-6.54,39.25-19.62,3.93-3.59,7.77-7.43,11.53-11.53,3.76-4.09,7.44-8.26,11.04-12.51,1.88-2.03,3.72-4.09,5.52-6.17-2.7,8.15-4.06,15.93-4.06,23.34s2.12,13.91,6.38,19.13c4.25,5.24,11.78,7.85,22.57,7.85s20.44-3.43,29.93-10.3c9.48-6.87,18.4-15.46,26.74-25.76,8.34-10.3,15.78-20.68,22.32-31.15-1.31,3.92-2.7,7.69-4.17,11.28-1.47,3.6-2.54,7.2-3.19,10.79-2.29,7.85-3.44,14.89-3.44,21.1,0,8.18,1.8,14.15,5.4,17.91,3.59,3.77,8.01,5.64,13.25,5.64,11.78,0,24.69-6.54,38.76-19.62,3.93-3.59,7.77-7.43,11.53-11.53,3.76-4.09,7.43-8.26,11.04-12.51,3.93-4.25,7.68-8.58,11.28-13ZM586.49,495.93c11.78-15.04,25.83-26.98,42.19-35.82,5.23-2.62,9.64-3.93,13.25-3.93,5.23,0,7.85,2.29,7.85,6.87,0,2.95-1.15,6.22-3.43,9.81-6.87,11.12-15.62,21.51-26.25,31.16-10.63,9.65-21.59,17.9-32.87,24.78-11.28,6.87-21.18,12.1-29.68,15.7,7.52-17.33,17.17-33.52,28.95-48.57ZM345.59,495.93c11.78-15.04,25.83-26.98,42.19-35.82,5.23-2.62,9.65-3.93,13.25-3.93,5.23,0,7.85,2.29,7.85,6.87,0,2.95-1.15,6.22-3.43,9.81-6.87,11.12-15.62,21.51-26.25,31.16-10.63,9.65-21.59,17.9-32.87,24.78-11.28,6.87-21.18,12.1-29.68,15.7,7.52-17.33,17.17-33.52,28.95-48.57Z"/>
  </g>
</svg>