<?xml version="1.0" encoding="UTF-8"?>
<svg id="Capa_1" xmlns="http://www.w3.org/2000/svg" version="1.1" viewBox="0 0 1080 1080">
  <!-- Generator: Adobe Illustrator 29.5.0, SVG Export Plug-In . SVG Version: 2.1.0 Build 137)  -->
  <defs>
    <style>
      .st0 {
        fill: #62398d;
      }
    </style>
  </defs>
  <g>
    <polygon class="st0" points="89.8 520.28 103.81 534.29 182.16 534.29 182.16 562.62 169.78 575 126.14 575 113.74 562.61 113.75 556.53 89.8 556.53 89.8 572.53 116.22 598.95 179.7 598.95 206.11 572.54 206.11 524.35 192.11 510.35 113.74 510.35 113.74 482.03 126.14 469.64 169.78 469.64 182.16 482.02 182.16 488.11 206.12 488.11 206.11 472.1 179.7 445.69 116.22 445.69 89.8 472.11 89.8 520.28"/>
    <path class="st0" d="M261.89,444.57l-.67-4.97h-5.01c-36.51,0-54.73-23.91-54.9-24.15l-.82-1.12h-104.69s-.82,1.11-.82,1.11c-.18.24-18.39,24.15-54.91,24.15h-5.01l-.67,4.96c-.19,1.43-17.99,144.01,110.79,219.36l2.96,1.73,2.96-1.73c128.71-75.31,110.99-217.9,110.79-219.36ZM194.49,425.47c4.84,5.82,22.43,23.76,56.47,25.48.84,12.12,1.58,44.58-9.84,82.21-15.54,51.24-46.82,91.33-92.98,119.19-46.16-27.86-77.44-67.95-92.98-119.19-11.42-37.63-10.67-70.09-9.83-82.21,34.04-1.72,51.63-19.66,56.47-25.48h92.7Z"/>
  </g>
  <g>
    <g>
      <g>
        <rect class="st0" x="848.18" y="562.48" width="198.37" height="1.37"/>
        <rect class="st0" x="316.03" y="562.48" width="198.37" height="1.37"/>
      </g>
      <g>
        <path class="st0" d="M540.9,570.22v-14.12c0-.25-.06-.44-.17-.57-.11-.13-.32-.24-.61-.32v-.39h9.31c2.04,0,3.6.23,4.7.7,1.57.68,2.72,1.79,3.47,3.35.59,1.22.89,2.65.89,4.29,0,2.88-.88,5.07-2.65,6.58-.74.64-1.61,1.09-2.61,1.36-1,.27-2.26.41-3.8.41h-9.31v-.39c.29-.08.5-.19.61-.32.11-.13.17-.32.17-.57ZM544.54,568.75h4.58c1.46,0,2.56-.2,3.29-.6,1.57-.86,2.36-2.52,2.36-5,0-1.79-.42-3.17-1.27-4.12-.47-.53-1.04-.91-1.71-1.13-.67-.22-1.56-.34-2.67-.34h-4.58v11.18Z"/>
        <path class="st0" d="M565.65,570.22v-14.13c0-.24-.06-.43-.17-.56-.11-.13-.32-.24-.61-.32v-.39h5.21v.39c-.29.07-.5.18-.61.31-.11.13-.17.32-.17.57v14.13c0,.25.06.45.18.58.12.14.32.24.6.31v.39h-5.21v-.39c.29-.08.5-.19.61-.32.11-.13.17-.32.17-.57Z"/>
        <path class="st0" d="M592.35,556.23l-1.99,3.93-.34-.2c0-.08.01-.15.01-.2,0-.28-.24-.57-.71-.89-1.45-1.01-3.15-1.52-5.11-1.52-.86,0-1.63.11-2.29.32-.48.16-.87.41-1.17.73-.3.32-.45.68-.45,1.06,0,.63.38,1.05,1.14,1.28.39.11,1.23.24,2.52.37l1.92.2c1.14.12,2.06.29,2.77.5.7.21,1.33.51,1.88.89.55.4.99.92,1.31,1.58.32.65.48,1.35.48,2.09,0,1.17-.38,2.21-1.14,3.13-.68.83-1.75,1.45-3.19,1.84-1.08.3-2.23.45-3.46.45-2.21,0-4.39-.53-6.54-1.59-.46-.21-.73-.32-.82-.32-.11,0-.27.09-.5.27l-.35-.18,1.81-4.1.35.17v.16c0,.37.18.71.53,1.01.53.47,1.35.88,2.46,1.22,1.11.34,2.16.51,3.15.51,1.08,0,2.01-.18,2.78-.55.42-.2.76-.47,1.01-.81.25-.34.38-.69.38-1.05,0-.55-.3-.95-.89-1.18-.42-.16-1.26-.31-2.52-.45l-1.88-.2c-1.26-.13-2.16-.25-2.68-.37-.52-.12-1.04-.31-1.57-.57-.74-.37-1.32-.92-1.75-1.65-.38-.66-.57-1.42-.57-2.28,0-1.41.49-2.58,1.46-3.5,1.27-1.22,3.18-1.82,5.72-1.82,1.07,0,2.06.11,2.98.33.92.22,2.07.62,3.45,1.2.47.19.76.28.87.28.17,0,.37-.09.6-.28l.34.18Z"/>
        <path class="st0" d="M607.84,557.57v12.65c0,.25.06.44.17.57.11.13.32.24.61.32v.39h-5.21v-.39c.29-.08.5-.19.61-.32.11-.13.17-.32.17-.57v-12.65h-5.18c-.24,0-.43.05-.56.17s-.24.32-.32.61h-.39v-4.32h.39c.09.3.2.5.32.61.13.11.31.17.56.17h14c.25,0,.44-.06.57-.17s.24-.32.32-.61h.39v4.32h-.39c-.08-.3-.19-.5-.32-.61-.13-.11-.32-.17-.57-.17h-5.17Z"/>
        <path class="st0" d="M624.14,564.7v5.54c0,.24.06.43.18.57.12.14.32.24.6.31v.39h-5.21v-.39c.29-.08.5-.19.61-.32.11-.13.17-.32.17-.56v-14.13c0-.25-.06-.44-.17-.57-.11-.13-.32-.24-.61-.32v-.39h10.44c1.27,0,2.28.07,3.03.22.75.15,1.4.4,1.95.77.64.42,1.12,1,1.44,1.72.3.7.45,1.45.45,2.25,0,2.72-1.51,4.32-4.54,4.78l3.24,4.61c.57.81.99,1.33,1.25,1.56.26.23.59.36.97.38v.39h-6.03v-.39c.41-.06.62-.21.62-.44,0-.15-.19-.5-.57-1.06l-3.38-4.92h-4.45ZM624.14,561.95h5.62c.83,0,1.42-.02,1.76-.07.34-.05.66-.15.94-.31.62-.33.93-.94.93-1.81s-.31-1.48-.93-1.81c-.29-.16-.6-.27-.94-.31-.33-.05-.92-.07-1.77-.07h-5.62v4.38Z"/>
        <path class="st0" d="M644.49,570.22v-14.13c0-.24-.06-.43-.17-.56-.11-.13-.32-.24-.61-.32v-.39h5.21v.39c-.29.07-.5.18-.61.31-.11.13-.17.32-.17.57v14.13c0,.25.06.45.18.58.12.14.32.24.6.31v.39h-5.21v-.39c.29-.08.5-.19.61-.32.11-.13.17-.32.17-.57Z"/>
        <path class="st0" d="M670.53,562.76c1.87.71,2.81,2.02,2.81,3.94,0,1.52-.55,2.72-1.64,3.58-.55.43-1.2.74-1.93.94-.73.19-1.63.29-2.71.29h-11.41v-.39c.29-.08.5-.19.61-.32.11-.13.17-.32.17-.57v-14.12c0-.25-.06-.44-.17-.57-.11-.13-.32-.24-.61-.32v-.39h11.3c1.08,0,1.96.08,2.62.24.66.16,1.24.44,1.74.83.99.77,1.48,1.89,1.48,3.35,0,1.63-.75,2.8-2.26,3.52ZM660.09,561.46h6.39c.97,0,1.65-.14,2.03-.43.43-.33.65-.83.65-1.52s-.2-1.2-.61-1.5c-.41-.3-1.1-.45-2.07-.45h-6.39v3.89ZM660.09,568.75h6.19c1.15,0,1.98-.16,2.48-.48.58-.37.87-.97.87-1.8s-.29-1.42-.87-1.8c-.5-.32-1.32-.48-2.48-.48h-6.19v4.55Z"/>
        <path class="st0" d="M696.59,556.1v9.35c0,1.77-.33,3.09-.98,3.97-1.17,1.58-3.6,2.37-7.27,2.37-2.66,0-4.69-.43-6.1-1.28-.82-.5-1.39-1.17-1.71-2.03-.31-.85-.46-1.86-.46-3.03v-9.35c0-.25-.06-.44-.17-.57-.11-.13-.32-.24-.61-.32v-.39h5.21v.39c-.29.07-.49.18-.61.31-.12.13-.17.33-.17.58v8.33c0,.96.05,1.67.16,2.13.11.46.31.84.6,1.15.78.83,2.12,1.25,4.01,1.25s3.24-.42,4.02-1.25c.28-.31.48-.7.59-1.15.11-.46.16-1.17.16-2.13v-8.33c0-.25-.06-.44-.17-.57-.11-.13-.32-.24-.61-.32v-.39h4.91v.39c-.29.08-.5.19-.61.32-.11.13-.17.32-.17.57Z"/>
        <path class="st0" d="M719.96,565.77l2.32,3.48-.32.22c-.23-.21-.42-.32-.56-.32s-.56.2-1.23.59c-1.4.81-2.58,1.35-3.54,1.64-.96.28-2.1.42-3.42.42-2.63,0-4.79-.62-6.48-1.87-.99-.72-1.78-1.63-2.35-2.7-.66-1.23-.99-2.59-.99-4.07,0-2.02.59-3.78,1.77-5.27,1.78-2.24,4.46-3.36,8.06-3.36,1.32,0,2.45.14,3.4.42.95.28,2.13.82,3.55,1.64.68.38,1.09.57,1.23.57s.33-.11.56-.32l.32.22-2.32,3.48-.33-.22c.02-.13.02-.24.02-.33,0-.24-.1-.46-.31-.66-.2-.21-.57-.46-1.09-.75-1.44-.81-2.97-1.22-4.58-1.22-1.91,0-3.43.48-4.56,1.43-1.34,1.11-2,2.57-2,4.37s.67,3.26,2,4.37c1.13.95,2.65,1.43,4.56,1.43,1.61,0,3.14-.41,4.58-1.22.52-.29.88-.54,1.09-.75.2-.21.31-.43.31-.67,0-.09,0-.2-.02-.32l.33-.23Z"/>
        <path class="st0" d="M729.33,570.22v-14.13c0-.24-.06-.43-.17-.56-.11-.13-.32-.24-.61-.32v-.39h5.21v.39c-.29.07-.5.18-.61.31-.11.13-.17.32-.17.57v14.13c0,.25.06.45.18.58.12.14.32.24.6.31v.39h-5.21v-.39c.29-.08.5-.19.61-.32.11-.13.17-.32.17-.57Z"/>
        <path class="st0" d="M749.68,554.53c2.91,0,5.22.79,6.92,2.36,1.8,1.65,2.7,3.77,2.7,6.38,0,1.6-.43,3.09-1.3,4.47-1.69,2.71-4.46,4.06-8.31,4.06-2.89,0-5.18-.79-6.89-2.36-.91-.84-1.61-1.84-2.08-3.02-.42-1.04-.62-2.12-.62-3.26,0-1.67.43-3.2,1.28-4.59,1.64-2.65,4.4-4,8.28-4.05ZM749.69,557.36c-1.59,0-2.92.47-3.98,1.42-1.26,1.11-1.88,2.58-1.88,4.38s.63,3.27,1.88,4.38c1.06.95,2.39,1.42,4,1.42s2.94-.47,3.99-1.42c.63-.56,1.11-1.25,1.44-2.06.29-.72.44-1.47.44-2.25,0-1.89-.63-3.37-1.88-4.46-1.07-.93-2.41-1.4-4.01-1.42Z"/>
        <path class="st0" d="M769.8,560.08v10.15c0,.25.06.44.17.57.11.13.32.24.61.32v.39h-4.9v-.39c.29-.08.5-.19.61-.32.11-.13.17-.32.17-.57v-14.13c0-.24-.06-.43-.17-.56-.11-.13-.32-.24-.61-.32v-.39h5.67v.39c-.35.09-.53.28-.53.56,0,.2.11.41.34.65l9.21,9.57v-9.9c0-.24-.06-.43-.17-.56-.11-.13-.32-.24-.61-.32v-.39h4.9v.39c-.29.08-.5.19-.61.32-.11.13-.17.32-.17.56v14.13c0,.25.06.44.17.57.11.13.32.24.61.32v.39h-5.26v-.39c.34-.07.51-.25.51-.53,0-.16-.2-.45-.6-.86l-9.35-9.66Z"/>
        <path class="st0" d="M795.68,564.18v4.57h10.73c.24,0,.43-.06.56-.17.13-.11.24-.32.32-.61h.39v4.32h-.39c-.08-.29-.19-.5-.32-.61s-.32-.17-.56-.17h-15.16v-.39c.29-.08.5-.19.61-.32.11-.13.17-.32.17-.57v-14.12c0-.25-.06-.44-.17-.57-.11-.13-.32-.24-.61-.32v-.39h14.87c.24,0,.43-.06.56-.18.13-.12.24-.32.32-.61h.39v4.32h-.39c-.08-.29-.19-.49-.32-.61-.13-.12-.32-.17-.56-.17h-10.44v3.96h6.77c.24,0,.43-.06.56-.17.13-.11.24-.32.32-.61h.39v4.22h-.39c-.08-.28-.19-.49-.32-.6-.13-.12-.32-.18-.56-.18h-6.77Z"/>
        <path class="st0" d="M829.56,556.23l-1.99,3.93-.34-.2c0-.08.01-.15.01-.2,0-.28-.24-.57-.71-.89-1.45-1.01-3.15-1.52-5.11-1.52-.86,0-1.63.11-2.29.32-.48.16-.87.41-1.17.73-.3.32-.45.68-.45,1.06,0,.63.38,1.05,1.14,1.28.39.11,1.23.24,2.52.37l1.92.2c1.14.12,2.06.29,2.77.5.7.21,1.33.51,1.88.89.55.4.99.92,1.31,1.58.32.65.48,1.35.48,2.09,0,1.17-.38,2.21-1.14,3.13-.68.83-1.75,1.45-3.19,1.84-1.08.3-2.23.45-3.46.45-2.21,0-4.39-.53-6.54-1.59-.46-.21-.73-.32-.82-.32-.11,0-.27.09-.5.27l-.35-.18,1.81-4.1.35.17v.16c0,.37.18.71.53,1.01.53.47,1.35.88,2.46,1.22,1.11.34,2.16.51,3.15.51,1.08,0,2.01-.18,2.78-.55.42-.2.76-.47,1.01-.81.25-.34.38-.69.38-1.05,0-.55-.3-.95-.89-1.18-.42-.16-1.26-.31-2.52-.45l-1.88-.2c-1.26-.13-2.16-.25-2.68-.37-.52-.12-1.04-.31-1.57-.57-.74-.37-1.32-.92-1.75-1.65-.38-.66-.57-1.42-.57-2.28,0-1.41.49-2.58,1.46-3.5,1.27-1.22,3.18-1.82,5.72-1.82,1.07,0,2.06.11,2.98.33.92.22,2.07.62,3.45,1.2.47.19.76.28.87.28.17,0,.37-.09.6-.28l.34.18Z"/>
      </g>
    </g>
    <g>
      <path class="st0" d="M331.26,525.03h35.29c.87,0,1.53-.2,1.98-.59.45-.39.81-1.09,1.09-2.1h1.35v14.85h-1.35c-.28-1.01-.64-1.71-1.09-2.1-.45-.39-1.11-.59-1.98-.59h-50.52v-1.35c1.01-.28,1.71-.64,2.1-1.09.39-.45.59-1.11.59-1.98v-48.59c0-.87-.2-1.53-.59-1.98-.39-.45-1.09-.81-2.1-1.09v-1.35h17.92v1.35c-1.01.25-1.71.61-2.1,1.07-.39.46-.59,1.13-.59,2v43.54Z"/>
      <path class="st0" d="M422.2,519.86h-26.1l-3.86,8.08c-.53,1.12-.8,2.01-.8,2.65,0,1.23.94,2.09,2.81,2.57v1.35h-18.99v-1.35c1.12-.22,1.98-.62,2.57-1.18.59-.56,1.26-1.65,2.02-3.28l21.12-44.13c.67-1.4,1.01-2.52,1.01-3.37,0-1.29-.81-2.22-2.44-2.78v-1.35h20.36v1.35c-1.65.48-2.48,1.3-2.48,2.48,0,.81.27,1.74.8,2.78l21.87,44.25c.93,1.88,1.74,3.16,2.44,3.85.7.69,1.64,1.14,2.82,1.37v1.35h-21.14v-1.35c1.86-.31,2.78-1.18,2.78-2.61,0-.59-.28-1.46-.84-2.61l-3.94-8.08ZM418.59,511.99l-9.31-20.45-9.46,20.45h18.77Z"/>
      <path class="st0" d="M542.7,481.94l-6.86,13.52-1.18-.67c.03-.28.04-.5.04-.67,0-.95-.81-1.98-2.44-3.07-4.99-3.48-10.85-5.22-17.58-5.22-2.97,0-5.59.36-7.87,1.09-1.65.56-2.99,1.4-4.02,2.52-1.02,1.12-1.54,2.34-1.54,3.66,0,2.16,1.3,3.62,3.91,4.41,1.35.39,4.23.81,8.67,1.26l6.6.67c3.93.42,7.1,1,9.53,1.72,2.43.73,4.58,1.75,6.46,3.06,1.91,1.37,3.41,3.18,4.52,5.43,1.11,2.24,1.66,4.63,1.66,7.19,0,4.04-1.3,7.62-3.91,10.76-2.36,2.86-6.02,4.97-10.98,6.34-3.7,1.04-7.67,1.56-11.9,1.56-7.6,0-15.1-1.82-22.5-5.47-1.57-.73-2.51-1.09-2.82-1.09-.36,0-.94.31-1.72.93l-1.22-.63,6.23-14.09,1.22.59v.55c0,1.26.6,2.43,1.81,3.49,1.82,1.63,4.64,3.03,8.46,4.21,3.81,1.18,7.43,1.77,10.85,1.77,3.73,0,6.91-.63,9.55-1.89,1.46-.7,2.62-1.63,3.49-2.8.87-1.16,1.3-2.37,1.3-3.63,0-1.9-1.02-3.26-3.07-4.07-1.43-.55-4.32-1.07-8.67-1.55l-6.48-.67c-4.35-.45-7.42-.88-9.21-1.28-1.79-.41-3.59-1.06-5.38-1.96-2.55-1.26-4.56-3.16-6.02-5.69-1.32-2.27-1.98-4.89-1.98-7.83,0-4.85,1.67-8.87,5.01-12.04,4.37-4.19,10.94-6.27,19.69-6.27,3.67,0,7.09.37,10.26,1.12,3.17.74,7.12,2.12,11.86,4.12,1.63.65,2.62.97,2.99.97.59,0,1.28-.32,2.06-.97l1.18.64Z"/>
      <path class="st0" d="M563.39,509.3v15.73h36.93c.84,0,1.49-.2,1.93-.59.45-.39.81-1.09,1.09-2.1h1.35v14.85h-1.35c-.28-1.01-.64-1.71-1.09-2.1-.45-.39-1.09-.59-1.93-.59h-52.16v-1.35c1.01-.28,1.71-.64,2.1-1.09s.59-1.11.59-1.98v-48.59c0-.87-.2-1.53-.59-1.98s-1.09-.81-2.1-1.09v-1.35h51.15c.84,0,1.49-.2,1.93-.6.45-.4.81-1.09,1.09-2.09h1.35v14.85h-1.35c-.28-1-.64-1.7-1.09-2.1-.45-.4-1.09-.6-1.93-.6h-35.92v13.63h23.3c.84,0,1.49-.2,1.93-.59.45-.39.81-1.09,1.09-2.1h1.35v14.51h-1.35c-.28-.98-.64-1.68-1.09-2.08-.45-.41-1.09-.61-1.93-.61h-23.3Z"/>
      <path class="st0" d="M628.17,525.03h35.29c.87,0,1.53-.2,1.98-.59.45-.39.81-1.09,1.09-2.1h1.35v14.85h-1.35c-.28-1.01-.64-1.71-1.09-2.1-.45-.39-1.11-.59-1.98-.59h-50.52v-1.35c1.01-.28,1.71-.64,2.1-1.09s.59-1.11.59-1.98v-48.59c0-.87-.2-1.53-.59-1.98s-1.09-.81-2.1-1.09v-1.35h17.92v1.35c-1.01.25-1.71.61-2.1,1.07-.39.46-.59,1.13-.59,2v43.54Z"/>
      <path class="st0" d="M689.12,509.3v15.73h36.93c.84,0,1.49-.2,1.93-.59s.81-1.09,1.09-2.1h1.35v14.85h-1.35c-.28-1.01-.64-1.71-1.09-2.1-.45-.39-1.09-.59-1.93-.59h-52.16v-1.35c1.01-.28,1.71-.64,2.1-1.09.39-.45.59-1.11.59-1.98v-48.59c0-.87-.2-1.53-.59-1.98-.39-.45-1.09-.81-2.1-1.09v-1.35h51.15c.84,0,1.49-.2,1.93-.6.45-.4.81-1.09,1.09-2.09h1.35v14.85h-1.35c-.28-1-.64-1.7-1.09-2.1-.45-.4-1.09-.6-1.93-.6h-35.92v13.63h23.3c.84,0,1.49-.2,1.93-.59.45-.39.81-1.09,1.09-2.1h1.35v14.51h-1.35c-.28-.98-.64-1.68-1.09-2.08-.45-.41-1.09-.61-1.93-.61h-23.3Z"/>
      <path class="st0" d="M794.24,514.77l7.99,11.97-1.09.76c-.79-.73-1.43-1.09-1.93-1.09s-1.92.67-4.25,2.03c-4.82,2.78-8.88,4.66-12.18,5.63-3.3.97-7.21,1.45-11.76,1.45-9.06,0-16.49-2.15-22.29-6.44-3.42-2.5-6.11-5.59-8.08-9.3-2.27-4.23-3.41-8.9-3.41-14.01,0-6.95,2.03-13,6.1-18.13,6.11-7.71,15.35-11.57,27.72-11.57,4.54,0,8.44.48,11.69,1.43,3.25.95,7.32,2.83,12.2,5.64,2.33,1.32,3.74,1.98,4.25,1.98s1.15-.36,1.93-1.09l1.09.76-7.99,11.99-1.14-.76c.06-.44.08-.82.08-1.13,0-.81-.35-1.57-1.05-2.29-.7-.71-1.95-1.57-3.74-2.57-4.96-2.8-10.22-4.19-15.77-4.19-6.56,0-11.79,1.64-15.69,4.91-4.6,3.84-6.9,8.85-6.9,15.05s2.3,11.2,6.9,15.05c3.9,3.27,9.13,4.91,15.69,4.91,5.55,0,10.81-1.4,15.77-4.21,1.79-1.01,3.04-1.87,3.74-2.59s1.05-1.48,1.05-2.29c0-.31-.03-.67-.08-1.09l1.14-.8Z"/>
      <path class="st0" d="M866.04,514.77l7.99,11.97-1.09.76c-.79-.73-1.43-1.09-1.93-1.09s-1.92.67-4.25,2.03c-4.82,2.78-8.88,4.66-12.18,5.63-3.3.97-7.21,1.45-11.76,1.45-9.06,0-16.49-2.15-22.29-6.44-3.42-2.5-6.11-5.59-8.08-9.3-2.27-4.23-3.41-8.9-3.41-14.01,0-6.95,2.03-13,6.1-18.13,6.11-7.71,15.35-11.57,27.72-11.57,4.54,0,8.44.48,11.69,1.43,3.25.95,7.32,2.83,12.2,5.64,2.33,1.32,3.74,1.98,4.25,1.98s1.15-.36,1.93-1.09l1.09.76-7.99,11.99-1.14-.76c.06-.44.08-.82.08-1.13,0-.81-.35-1.57-1.05-2.29-.7-.71-1.95-1.57-3.74-2.57-4.96-2.8-10.22-4.19-15.77-4.19-6.56,0-11.79,1.64-15.69,4.91-4.6,3.84-6.9,8.85-6.9,15.05s2.3,11.2,6.9,15.05c3.9,3.27,9.13,4.91,15.69,4.91,5.55,0,10.81-1.4,15.77-4.21,1.79-1.01,3.04-1.87,3.74-2.59s1.05-1.48,1.05-2.29c0-.31-.03-.67-.08-1.09l1.14-.8Z"/>
      <path class="st0" d="M885.35,530.08v-48.63c0-.84-.2-1.49-.59-1.93-.39-.45-1.09-.81-2.1-1.09v-1.35h17.92v1.35c-1.01.25-1.71.61-2.1,1.07-.39.46-.59,1.11-.59,1.96v48.63c0,.87.2,1.54.61,2,.41.46,1.1.82,2.08,1.07v1.35h-17.92v-1.35c1.01-.28,1.71-.64,2.1-1.09.39-.45.59-1.11.59-1.98Z"/>
      <path class="st0" d="M941.4,476.07c10.02,0,17.96,2.71,23.82,8.12,6.2,5.66,9.3,12.98,9.3,21.96,0,5.5-1.49,10.63-4.46,15.4-5.81,9.31-15.34,13.97-28.58,13.97-9.93,0-17.83-2.71-23.7-8.12-3.14-2.89-5.53-6.35-7.16-10.39-1.43-3.56-2.15-7.31-2.15-11.23,0-5.75,1.47-11.01,4.42-15.77,5.64-9.11,15.14-13.76,28.5-13.92ZM941.44,485.83c-5.48,0-10.04,1.63-13.69,4.87-4.33,3.84-6.49,8.87-6.49,15.09s2.16,11.25,6.49,15.09c3.65,3.25,8.24,4.87,13.77,4.87s10.11-1.63,13.73-4.87c2.16-1.93,3.82-4.3,4.97-7.1,1.01-2.5,1.51-5.07,1.51-7.73,0-6.5-2.16-11.61-6.49-15.34-3.68-3.19-8.28-4.82-13.81-4.87ZM953.03,460.25v1.14c-1.09.03-1.92.42-2.48,1.18l-5.97,7.28c-.17.2-.25.42-.25.67,0,.45.29.67.88.67h.17v1.14h-9.13v-1.14c.67,0,1.15-.1,1.43-.29s.55-.6.8-1.22l2.78-6.86c.11-.25.17-.46.17-.63,0-.45-.39-.72-1.18-.8v-1.14h12.79Z"/>
      <path class="st0" d="M995.99,495.16v34.91c0,.87.2,1.53.59,1.98.39.45,1.09.81,2.1,1.09v1.35h-16.87v-1.35c1.01-.28,1.71-.64,2.1-1.09.39-.45.59-1.11.59-1.98v-48.63c0-.84-.2-1.49-.59-1.93-.39-.45-1.09-.81-2.1-1.09v-1.35h19.52v1.35c-1.21.31-1.81.95-1.81,1.93,0,.67.39,1.42,1.18,2.23l31.67,32.94v-34.07c0-.84-.2-1.49-.59-1.93-.39-.45-1.09-.81-2.1-1.09v-1.35h16.87v1.35c-1.01.28-1.71.64-2.1,1.09-.39.45-.59,1.09-.59,1.93v48.63c0,.87.2,1.53.59,1.98.39.45,1.09.81,2.1,1.09v1.35h-18.09v-1.35c1.18-.25,1.77-.86,1.77-1.81,0-.56-.69-1.54-2.06-2.94l-32.18-33.23Z"/>
    </g>
  </g>
</svg>