<?xml version="1.0" encoding="UTF-8"?>
<svg id="Capa_1" xmlns="http://www.w3.org/2000/svg" version="1.1" viewBox="0 0 1080 1080">
  <!-- Generator: Adobe Illustrator 29.5.0, SVG Export Plug-In . SVG Version: 2.1.0 Build 137)  -->
  <defs>
    <style>
      .st0 {
        fill: #62398d;
      }
    </style>
  </defs>
  <g>
    <path class="st0" d="M592.46,387.63v187.86c0,7.38-2.78,13.64-8.33,18.79-5.56,5.15-12.24,7.72-20.04,7.72s-14.49-2.57-20.04-7.72c-5.56-5.14-8.34-11.41-8.34-18.79v-187.86c0-7.38,2.84-13.7,8.51-18.95,5.68-5.25,12.29-7.88,19.86-7.88s14.19,2.63,19.86,7.88c5.68,5.26,8.51,11.57,8.51,18.95Z"/>
    <path class="st0" d="M663.32,450.33v125.16c0,7.38-2.78,13.64-8.33,18.79-5.56,5.15-12.24,7.72-20.04,7.72s-14.49-2.57-20.04-7.72c-5.56-5.14-8.34-11.41-8.34-18.79v-125.16c0-7.38,2.84-13.7,8.51-18.95,5.68-5.25,12.29-7.88,19.86-7.88s14.19,2.63,19.86,7.88c5.68,5.26,8.51,11.57,8.51,18.95Z"/>
    <path class="st0" d="M213.09,502.67c0-15.67,12.7-28.38,28.38-28.38s28.38,12.7,28.38,28.38v72.71c0,7.41,2.59,13.7,7.78,18.86,5.18,5.17,15.2,7.75,22.48,7.75s13.52-2.58,18.71-7.75c5.18-5.16,7.78-11.45,7.78-18.86v-68.37c0-27.39-5.52-48.16-16.56-62.3-11.04-14.14-26.16-21.22-45.36-21.22-13.47,0-25.5,3.76-36.09,11.28-10.6,7.53-18.54,17.34-23.84,29.47-9.49-27.16-27.93-40.75-55.29-40.75-15.45,0-28.04,4.49-37.75,13.47-9.93,8.76-15.23,17.07-15.89,24.92v-10.44c0-7.63-2.65-14.09-7.95-19.36-5.3-5.27-11.48-7.91-18.54-7.91s-13.24,2.64-18.54,7.91c-5.3,5.28-7.95,11.73-7.95,19.36v123.94c0,7.41,2.59,13.7,7.78,18.86,5.18,5.17,15.4,7.75,22.69,7.75s13.52-2.58,18.71-7.75c5.18-5.16,7.78-11.45,7.78-18.86l-.21-72.71c0-15.67,12.7-28.38,28.38-28.38s28.38,12.7,28.38,28.38v72.71c0,7.41,2.59,13.7,7.78,18.86,5.18,5.17,13.36,7.75,20.43,7.75s15.57-2.58,20.76-7.75c5.18-5.16,7.78-11.45,7.78-18.86v-72.71Z"/>
    <path class="st0" d="M493.07,423.49c-12.54,0-23.41,8.01-27.18,19.27-13.58-12.37-30.85-19.78-49.64-19.78-43.77,0-79.25,40.18-79.25,89.74s35.48,89.74,79.25,89.74c18.76,0,35.99-7.38,49.57-19.72,3.67,11.45,14.58,19.28,27.25,19.28,15.69,0,28.42-12.72,28.42-28.42v-121.7c0-15.69-12.72-28.42-28.42-28.42ZM427.01,549.7s-36.13-15.63-36.13-44.13c-.07-11.92,8.58-21.55,19.26-21.55,7.54,0,14.11,4.89,17.24,12,3.14-7.1,9.7-12,17.24-12,10.67,0,19.33,9.63,19.33,21.55,0,28.34-36.95,44.13-36.95,44.13Z"/>
    <path class="st0" d="M777.69,422.99c-27.44,0-43.44,14.74-43.44,14.74v-49.3c0-15.67-12.7-28.38-28.38-28.38s-28.38,12.7-28.38,28.38v185.18c0,15.67,12.7,28.38,28.38,28.38,11.35,0,21.14-6.66,25.68-16.29,13.08,10.79,28.71,16.76,46.13,16.76,43.77,0,79.25-40.18,79.25-89.74s-35.48-89.74-79.25-89.74ZM766.81,549.7s-36.13-15.63-36.13-44.13c-.07-11.92,8.58-21.55,19.26-21.55,7.54,0,14.11,4.89,17.24,12,3.14-7.1,9.7-12,17.24-12,10.67,0,19.33,9.63,19.33,21.55,0,28.34-36.95,44.13-36.95,44.13Z"/>
    <path class="st0" d="M980.52,528.41c0,15.67-12.7,28.38-28.38,28.38s-28.95-12.7-28.95-28.38v-76.55c0-15.67-12.7-28.38-28.38-28.38s-28.38,12.7-28.38,28.38l.04,66.6c0,27.39,5.61,48.16,16.84,62.3,11.22,14.14,26.49,21.22,45.8,21.22,15.49,0,28.29-4.38,38.39-13.13,10.1-9.2,12.21-17.62,12.88-25.26v10.44c0,7.41,2.7,13.81,8.08,19.2,5.39,5.39,13.1,8.77,20.29,8.77s15.32-3.38,20.71-8.77c5.39-5.39,7.67-12.2,7.67-19.6v-121.76c0-15.67-12.7-28.38-28.38-28.38s-28.38,12.7-28.38,28.38l.11,76.55Z"/>
  </g>
  <g>
    <path class="st0" d="M240.83,640.46c6.66,0,12.7,2.6,18.12,7.8,5.49,5.2,8.23,12.34,8.23,21.41s-2.71,16.43-8.12,21.63c-5.34,5.12-11.42,7.69-18.23,7.69-3.29,0-6.24-.66-8.84-1.98-2.6-1.32-4.45-2.93-5.54-4.83v19.11c0,2.42-.88,4.46-2.64,6.15-1.76,1.68-3.84,2.53-6.26,2.53s-4.48-.84-6.2-2.53c-1.72-1.68-2.58-3.73-2.58-6.15v-61.82c0-2.34.9-4.37,2.69-6.09,1.79-1.72,3.9-2.58,6.31-2.58s4.39.86,6.15,2.58c1.76,1.72,2.64,3.75,2.64,6.09v-.99c.88-2.2,2.63-4.08,5.27-5.65,2.63-1.57,5.64-2.36,9-2.36ZM237.54,684.05c3.44,0,6.31-1.32,8.62-3.95,2.31-2.63,3.46-6.11,3.46-10.43s-1.15-7.78-3.46-10.38c-2.31-2.6-5.18-3.9-8.62-3.9-2.86,0-5.56,1.17-8.12,3.51-2.42,2.34-3.62,5.93-3.62,10.76s1.21,8.64,3.62,10.98c2.34,2.27,5.05,3.4,8.12,3.4Z"/>
    <path class="st0" d="M325.71,640.57c2.42,0,4.34.75,5.76,2.25,1.43,1.5,2.14,3.39,2.14,5.65,0,5.49-3.7,8.23-11.09,8.23-3.59,0-6.52,1.03-8.78,3.08-2.42,2.12-3.66,4.1-3.73,5.93v24.38c0,2.34-.88,4.37-2.63,6.09-1.76,1.72-3.81,2.58-6.15,2.58s-4.39-.86-6.15-2.58c-1.76-1.72-2.63-3.75-2.63-6.09v-40.41c0-2.49.88-4.59,2.63-6.31,1.76-1.72,3.81-2.58,6.15-2.58s4.39.86,6.15,2.58c1.76,1.72,2.63,3.83,2.63,6.31v3.4c.22-2.34,1.87-5.01,4.94-8.01,3.22-3,6.81-4.5,10.76-4.5Z"/>
    <path class="st0" d="M379.62,640.46c4.39,0,8.8,1.06,13.23,3.18,4.43,2.12,8.27,5.51,11.53,10.16,3.26,4.65,4.89,10.01,4.89,16.09,0,4.54-.93,8.75-2.8,12.63-1.87,3.88-4.34,6.99-7.41,9.33-6.15,4.76-12.63,7.14-19.43,7.14s-13.18-2.38-19.54-7.14c-3.07-2.34-5.54-5.45-7.41-9.33-1.87-3.88-2.8-8.09-2.8-12.63s.95-8.86,2.85-12.74c1.9-3.88,4.34-6.99,7.3-9.33,2.96-2.34,6.15-4.15,9.55-5.44,3.4-1.28,6.75-1.92,10.05-1.92ZM367.21,669.88c0,4.1,1.19,7.45,3.57,10.05,2.38,2.6,5.33,3.9,8.84,3.9s6.37-1.32,8.78-3.95c2.42-2.63,3.62-5.96,3.62-9.99s-1.19-7.59-3.57-10.27c-2.38-2.67-5.32-4.01-8.84-4.01s-6.55,1.34-8.89,4.01c-2.34,2.67-3.51,6.09-3.51,10.27Z"/>
    <path class="st0" d="M481.73,619.82c2.42,0,4.52.86,6.31,2.58,1.79,1.72,2.69,3.75,2.69,6.09v61.71c0,2.42-.9,4.46-2.69,6.15-1.79,1.69-3.9,2.53-6.31,2.53-2.05,0-3.88-.64-5.49-1.92-1.61-1.28-2.63-2.91-3.07-4.89-1.17,1.9-3.04,3.53-5.6,4.89-2.56,1.35-5.53,2.03-8.89,2.03-6.88,0-12.99-2.56-18.34-7.69-5.34-5.12-8.01-12.33-8.01-21.63s2.71-16.21,8.12-21.41c5.56-5.2,11.64-7.8,18.23-7.8,3.37,0,6.37.79,9,2.36,2.63,1.57,4.39,3.46,5.27,5.65v.99c0-.66.04-1.1.11-1.32v-19.65c0-2.34.86-4.37,2.58-6.09,1.72-1.72,3.75-2.58,6.09-2.58ZM461.96,684.05c3.07,0,5.78-1.13,8.12-3.4,2.42-2.34,3.62-6,3.62-10.98s-1.25-8.49-3.73-10.76c-2.49-2.34-5.16-3.51-8.02-3.51-3.44,0-6.31,1.3-8.62,3.9-2.31,2.6-3.46,6.06-3.46,10.38s1.15,7.8,3.46,10.43c2.31,2.63,5.18,3.95,8.62,3.95Z"/>
    <path class="st0" d="M540.79,698.87c-6.3,0-11.27-2.31-14.93-6.92-3.66-4.61-5.49-11.38-5.49-20.31v-22.29c0-2.42.86-4.46,2.58-6.15,1.72-1.68,3.79-2.53,6.2-2.53s4.37.84,6.09,2.53c1.72,1.68,2.58,3.73,2.58,6.15v22.29c0,4.1.86,7.19,2.58,9.28,1.72,2.09,4.12,3.13,7.19,3.13,2.05,0,3.86-.47,5.43-1.43,1.57-.95,2.73-2.07,3.46-3.35.73-1.28,1.26-2.42,1.59-3.4.33-.99.49-1.7.49-2.14v-24.38c0-2.42.86-4.46,2.58-6.15,1.72-1.68,3.79-2.53,6.2-2.53s4.48.84,6.2,2.53c1.72,1.68,2.58,3.73,2.58,6.15v40.4c0,2.42-.88,4.5-2.63,6.26-1.76,1.76-3.81,2.63-6.15,2.63s-4.39-.88-6.15-2.63c-1.76-1.76-2.63-3.84-2.63-6.26v-3.4c-.22,2.49-1.98,5.23-5.27,8.23-3.29,2.86-7.47,4.28-12.52,4.28Z"/>
    <path class="st0" d="M654.21,686.02c0,1.98-.66,3.73-1.98,5.27-.37.37-.95.92-1.76,1.65-.81.73-1.28,1.17-1.43,1.32-4.54,3-9.77,4.5-15.7,4.5-7.17,0-13.8-2.34-19.87-7.03-3-2.42-5.4-5.56-7.19-9.44-1.79-3.88-2.69-8.09-2.69-12.63s.91-9.04,2.74-12.85c1.83-3.8,4.21-6.88,7.14-9.22,2.93-2.34,6.09-4.12,9.5-5.33,3.4-1.21,6.86-1.81,10.38-1.81,5.93,0,11.16,1.5,15.7,4.5.15.15.44.4.88.77.44.37.86.75,1.26,1.15.4.4.75.79,1.04,1.15,1.32,1.32,1.98,3.04,1.98,5.16-.22,3.07-1.63,5.11-4.23,6.09-2.6.99-5.69.35-9.28-1.92-1.83-1.17-4.1-1.76-6.81-1.76-4.03,0-7.19,1.26-9.5,3.79-2.31,2.53-3.46,5.95-3.46,10.27s1.17,7.63,3.51,10.16c2.34,2.53,5.49,3.79,9.44,3.79,2.71,0,4.98-.59,6.81-1.76,3.59-2.27,6.68-2.91,9.28-1.92,2.6.99,4.01,3.02,4.23,6.09Z"/>
    <path class="st0" d="M711.2,683.39c1.9,0,3.4.55,4.5,1.65,1.1,1.1,1.65,2.67,1.65,4.72,0,2.86-1.19,5.07-3.57,6.64-2.38,1.58-5.76,2.36-10.16,2.36-4.61,0-8.49-1.17-11.64-3.51-3.66-2.85-5.49-8.6-5.49-17.24v-23.39h-2.2c-2.12,0-3.83-.62-5.11-1.87-1.28-1.24-1.92-2.85-1.92-4.83s.64-3.6,1.92-4.89c1.28-1.28,2.98-1.92,5.11-1.92h2.2v-6.37c0-2.42.88-4.48,2.63-6.2,1.76-1.72,3.81-2.58,6.15-2.58s4.39.86,6.15,2.58c1.76,1.72,2.64,3.79,2.64,6.2v6.37h6.37c2.12,0,3.81.64,5.05,1.92,1.24,1.28,1.87,2.91,1.87,4.89s-.62,3.59-1.87,4.83c-1.25,1.25-2.93,1.87-5.05,1.87h-6.37v24.26c0,3.22.99,4.83,2.96,4.83.07,0,.69-.07,1.87-.22,1.17-.15,1.94-.18,2.31-.11Z"/>
    <path class="st0" d="M769.06,640.46c4.39,0,8.8,1.06,13.23,3.18,4.43,2.12,8.27,5.51,11.53,10.16,3.26,4.65,4.89,10.01,4.89,16.09,0,4.54-.93,8.75-2.8,12.63-1.87,3.88-4.34,6.99-7.41,9.33-6.15,4.76-12.63,7.14-19.43,7.14s-13.18-2.38-19.54-7.14c-3.07-2.34-5.54-5.45-7.41-9.33-1.87-3.88-2.8-8.09-2.8-12.63s.95-8.86,2.85-12.74c1.9-3.88,4.34-6.99,7.3-9.33,2.96-2.34,6.15-4.15,9.55-5.44,3.4-1.28,6.75-1.92,10.05-1.92ZM756.65,669.88c0,4.1,1.19,7.45,3.57,10.05,2.38,2.6,5.33,3.9,8.84,3.9s6.37-1.32,8.78-3.95c2.42-2.63,3.62-5.96,3.62-9.99s-1.19-7.59-3.57-10.27c-2.38-2.67-5.32-4.01-8.84-4.01s-6.55,1.34-8.89,4.01c-2.34,2.67-3.51,6.09-3.51,10.27Z"/>
    <path class="st0" d="M844.05,640.46c3.73,0,7.25.68,10.54,2.03,3.29,1.36,5.82,3.2,7.58,5.55,1.46,1.68,2.2,3.51,2.2,5.49s-.62,3.55-1.87,4.72c-1.25,1.17-2.85,1.76-4.83,1.76-2.85,0-5.23-1.06-7.14-3.18-1.9-1.76-3.84-2.63-5.82-2.63-3,0-4.5,1.14-4.5,3.4v.11c0,.37.04.7.11.99.07.29.42.73,1.04,1.32.62.59,1.55,1.06,2.8,1.43l6.48,1.98c5.2,1.61,9.13,3.72,11.8,6.31,2.67,2.6,4.01,6.09,4.01,10.48,0,6-2.27,10.61-6.81,13.83-4.47,3.15-9.85,4.72-16.14,4.72-3.07,0-6-.44-8.78-1.32-2.86-1.02-4.76-1.87-5.71-2.53-.44-.29-1.79-1.35-4.06-3.18-2.49-2.49-3.73-5.23-3.73-8.23-.15-.95,0-1.88.44-2.8.44-.91,1.1-1.7,1.98-2.36.88-.66,1.87-1.08,2.96-1.26,1.1-.18,2.38.04,3.84.66,1.46.62,2.93,1.67,4.39,3.13,2.78,2.56,5.67,3.84,8.67,3.84,3.73,0,5.6-1.17,5.6-3.51,0-.37-.04-.71-.11-1.04-.07-.33-.51-.86-1.32-1.59-.81-.73-1.94-1.32-3.4-1.76l-5.16-1.54c-10.76-3.15-16.14-9-16.14-17.57,0-5.49,2.09-9.73,6.26-12.74,4.32-3,9.26-4.5,14.82-4.5Z"/>
  </g>
</svg>