<?xml version="1.0" encoding="UTF-8"?>
<svg id="Capa_1" xmlns="http://www.w3.org/2000/svg" version="1.1" viewBox="0 0 1080 1080">
  <!-- Generator: Adobe Illustrator 29.5.0, SVG Export Plug-In . SVG Version: 2.1.0 Build 137)  -->
  <defs>
    <style>
      .st0 {
        fill: #62398d;
      }
    </style>
  </defs>
  <path class="st0" d="M372.52,707.15h101.01v-168.01c0-31.33-8.92-55.67-26.75-73.01-17.84-17.33-41.93-26-72.26-26-35.34,0-63.34,13.84-84.01,41.5-17-27.67-43-41.5-78.01-41.5-32.67,0-67.71,15.11-85.71,42.78v-33.78H40.49v258.02h101.01v-152.71c0-19.77,16.03-35.8,35.8-35.8s35.8,16.03,35.8,35.8v152.71h86.3v-152.71c0-19.77,16.4-35.8,36.64-35.8s36.64,16.03,36.64,35.8l-.15,152.71Z"/>
  <path class="st0" d="M595.23,707.15h-101.65v-258.02h101.65v258.02Z"/>
  <path class="st0" d="M724.04,707.15h-101.01v-344.29h101.01v344.29Z"/>
  <path class="st0" d="M1039.51,708.06h-99.53c-5-10.66-8.65-21.75-9.98-31.42-17,27-44.68,40.5-83.01,40.5-29,0-52-7.09-69.01-21.25-17-14.16-25.5-33.58-25.5-58.26,0-21,6.42-37.83,19.25-50.5,12.83-12.66,33.42-21.33,61.76-26l91.77-14.2v-18.34c0-15.33-12.1-22.97-33.77-22.97-10.34,0-18,2.17-23,6.5-5,4.34-7.29,13.33-7.96,23.33h-96.49c3.66-31,15.77-59.08,36.44-73.58,20.66-14.5,52.33-21.75,95.01-21.75s76.17,7.42,97.51,22.25c21.33,14.84,32,38.43,32,70.76v109.01c0,26.68,4.83,49.26,14.5,65.92ZM879.76,653.64c13.67,0,24.67-3.66,33-11,8.33-7.33,12.5-18.33,12.5-33v-11.5l-44,8c-21.34,3.34-32,11.67-32,25,0,15,10.16,22.5,30.5,22.5Z"/>
</svg>