<?xml version="1.0" encoding="UTF-8"?>
<svg id="Capa_1" xmlns="http://www.w3.org/2000/svg" version="1.1" viewBox="0 0 1080 1080">
  <!-- Generator: Adobe Illustrator 29.5.0, SVG Export Plug-In . SVG Version: 2.1.0 Build 137)  -->
  <defs>
    <style>
      .st0 {
        fill: #62398d;
      }
    </style>
  </defs>
  <g>
    <path class="st0" d="M665.52,570.5l-5.89,41.08c-1.74,13.83-1.58,23.22.46,28.17h-90.38c-1.81-6-1.58-15.39.71-28.17l4.93-27.78c2.4-13.3,1.6-22.43-2.4-27.39-4-4.95-12.52-7.43-25.56-7.43h-30.52l-19.94,90.77h-88.42l61.19-278.57h137.33c71.46,0,101.21,27.26,89.24,81.77-7.33,33.39-26.16,55.56-56.47,66.51,11.49,4.69,19.23,11.87,23.25,21.52,4.01,9.65,4.83,22.83,2.47,39.52ZM530.98,484.82h35.21c20.34,0,32.55-9.26,36.62-27.78,4.07-18.52-4.07-27.78-24.41-27.78h-35.21l-12.2,55.56Z"/>
    <path class="st0" d="M815.04,646.8c-42.78,0-74.52-13.43-95.22-40.3-21.02-26.6-26.66-62.07-16.92-106.42,9.8-44.6,30.99-79.94,63.59-106.03,32.59-26.08,71.84-39.12,117.75-39.12,39.13,0,68.44,9.92,87.95,29.73,19.51,19.82,28.6,47.6,27.27,83.34h-91.16c-.97-25.3-15.14-37.95-42.52-37.95-37.3,0-61.08,23.35-71.33,70.03-5.21,23.74-4.19,41.61,3.09,53.6,7.27,12,20.04,18,38.3,18,27.12,0,46.57-12.52,58.33-37.56h90.38c-13.07,33.39-35.05,60.39-65.91,80.99-30.99,21.13-65.52,31.69-103.6,31.69Z"/>
  </g>
  <g>
    <polygon class="st0" points="363.53 361.19 451.96 361.19 390.76 639.75 302.34 639.75 363.53 361.19"/>
    <polygon class="st0" points="259.86 361.19 348.29 361.19 287.09 639.75 198.67 639.75 259.86 361.19"/>
    <polygon class="st0" points="156.19 361.19 244.62 361.19 183.42 639.75 95 639.75 156.19 361.19"/>
  </g>
  <g>
    <path class="st0" d="M120.79,690.62l8.41-20.27h26.12l-11.41,53.45h-16.21l3.23-15.16c2.75-12.66,4.5-20.37,5.25-23.12-.75,1.75-1.65,3.83-2.7,6.23-1.05,2.4-1.6,3.65-1.65,3.75l-12.76,28.3h-13.44l-.83-28.3c-.1-5.6-.13-8.88-.08-9.83-1.45,8.51-2.93,16.16-4.43,22.97l-3.23,15.16h-16.66l11.41-53.45h25.15l.6,20.27c.1,3.5.08,6.41-.07,8.71,1.05-3,2.15-5.9,3.3-8.71Z"/>
    <path class="st0" d="M178.51,725.07c-8.81,0-15.46-2.75-19.97-8.26-4.55-5.45-5.88-12.84-3.98-22.14,1.65-8.06,5.2-14.32,10.66-18.8,5.45-4.48,12.36-6.72,20.72-6.72,8.81,0,15.54,2.75,20.19,8.26,4.6,5.51,5.95,12.86,4.05,22.07-1.75,8.31-5.33,14.65-10.73,19.03-5.41,4.38-12.39,6.57-20.94,6.57ZM180.47,710.66c6.46,0,10.58-4.28,12.39-12.84,1-4.7.68-8.26-.98-10.66-1.65-2.4-4.28-3.6-7.88-3.6-6.26,0-10.33,4.2-12.24,12.61-1,4.8-.7,8.42.9,10.85,1.6,2.43,4.2,3.64,7.81,3.64Z"/>
    <path class="st0" d="M242.32,690.09l9.83-19.74h17.34l-28.68,53.45h-20.72l-6.68-53.45h17.19l1.65,19.74c.55,6.46.98,12.51,1.28,18.17,2.95-6.41,5.88-12.46,8.78-18.17Z"/>
    <path class="st0" d="M277.38,723.8h-16.97l11.41-53.45h16.97l-11.41,53.45Z"/>
    <path class="st0" d="M323.77,690.62l8.41-20.27h26.12l-11.41,53.45h-16.21l3.23-15.16c2.75-12.66,4.5-20.37,5.25-23.12-.75,1.75-1.65,3.83-2.7,6.23-1.05,2.4-1.6,3.65-1.65,3.75l-12.76,28.3h-13.44l-.83-28.3c-.1-5.6-.13-8.88-.08-9.83-1.45,8.51-2.93,16.16-4.43,22.97l-3.23,15.16h-16.66l11.41-53.45h25.15l.6,20.27c.1,3.5.08,6.41-.07,8.71,1.05-3,2.15-5.9,3.3-8.71Z"/>
    <path class="st0" d="M369.85,723.8h-16.97l11.41-53.45h16.97l-11.41,53.45Z"/>
    <path class="st0" d="M431.11,670.35l-3.15,14.56h-26.8l-1.13,5.25h24.85l-3,14.04h-24.85l-1.13,5.03h26.95l-3.15,14.56h-43.84l11.41-53.45h43.84Z"/>
    <path class="st0" d="M467.44,679.06l1.88-8.71h16.14l-11.41,53.45h-16.89l-7.21-18.99c-1.3-3.35-2.43-6.58-3.38-9.68-1.35,7.46-2.65,14.11-3.9,19.97l-1.88,8.71h-16.14l11.41-53.45h16.97l6.98,18.99c.8,2.05,1.88,5.63,3.23,10.73.9-5.3,2.3-12.31,4.2-21.02Z"/>
    <path class="st0" d="M489.58,670.35h46.54l-3.15,14.64h-14.79l-8.26,38.81h-16.96l8.26-38.81h-14.79l3.15-14.64Z"/>
    <path class="st0" d="M556.32,725.07c-8.81,0-15.46-2.75-19.97-8.26-4.55-5.45-5.88-12.84-3.98-22.14,1.65-8.06,5.2-14.32,10.66-18.8,5.45-4.48,12.36-6.72,20.72-6.72,8.81,0,15.54,2.75,20.19,8.26,4.6,5.51,5.95,12.86,4.05,22.07-1.75,8.31-5.33,14.65-10.73,19.03-5.41,4.38-12.39,6.57-20.94,6.57ZM558.27,710.66c6.46,0,10.58-4.28,12.39-12.84,1-4.7.68-8.26-.98-10.66-1.65-2.4-4.28-3.6-7.88-3.6-6.26,0-10.33,4.2-12.24,12.61-1,4.8-.7,8.42.9,10.85,1.6,2.43,4.2,3.64,7.81,3.64Z"/>
    <path class="st0" d="M615.54,670.35h20.87c10.06,0,17.17,2.62,21.32,7.84,4.15,5.23,5.11,12.92,2.85,23.08-3.35,15.01-13.06,22.52-29.12,22.52h-27.25l11.33-53.45ZM643.62,697.6c1.85-8.76-1.18-13.14-9.08-13.14h-5.03l-5.33,25.22h6.76c3.6,0,6.39-.94,8.37-2.81,1.98-1.88,3.42-4.97,4.32-9.27Z"/>
    <path class="st0" d="M715.45,670.35l-3.15,14.56h-26.8l-1.13,5.25h24.85l-3,14.04h-24.85l-1.13,5.03h26.95l-3.15,14.56h-43.84l11.41-53.45h43.84Z"/>
    <path class="st0" d="M749.61,725c-8.21,0-14.21-1.66-18.02-4.99-3.8-3.33-5.25-7.84-4.35-13.55h16.67c-.1,1.95.46,3.38,1.69,4.28,1.23.9,3.09,1.35,5.59,1.35,2.35,0,4.06-.24,5.14-.71,1.08-.47,1.74-1.26,1.99-2.36.3-1.35-.05-2.38-1.05-3.08-1-.7-2.9-1.3-5.71-1.8l-6.23-1.13c-4.9-.9-8.49-2.98-10.77-6.23-2.28-3.25-2.89-7.41-1.84-12.46,2-10.11,10.21-15.16,24.62-15.16,7.45,0,13.04,1.53,16.74,4.58,3.7,3.05,5.23,7.43,4.58,13.14h-15.84c0-3.2-2.25-4.8-6.76-4.8-3.85,0-6.01,1.03-6.46,3.08-.5,2.15.83,3.53,3.98,4.13l7.88,1.43c5.66,1.05,9.63,3.19,11.94,6.42,2.3,3.23,2.93,7.39,1.88,12.5-2.15,10.26-10.71,15.39-25.67,15.39Z"/>
    <path class="st0" d="M801.85,725c-7.81,0-13.71-2.18-17.71-6.53-4.01-4.3-5.13-10.56-3.38-18.77l6.31-29.35h17.12l-6.61,31.45c-.6,2.75-.34,4.88.79,6.38s2.89,2.25,5.29,2.25,4.34-.69,5.97-2.06c1.63-1.38,2.69-3.31,3.19-5.82l6.61-32.2h17.19l-7.21,34.45c-1.35,6.41-4.44,11.37-9.27,14.9-4.83,3.53-10.92,5.29-18.28,5.29Z"/>
    <path class="st0" d="M885.85,670.35l-3.15,14.56h-26.8l-1.13,5.25h24.85l-3,14.04h-24.85l-1.13,5.03h26.95l-3.15,14.56h-43.84l11.41-53.45h43.84Z"/>
    <path class="st0" d="M907.77,670.35l-8.33,38.88h23.05l-3.15,14.56h-39.93l11.41-53.45h16.97Z"/>
    <path class="st0" d="M949.13,725.07c-8.81,0-15.46-2.75-19.97-8.26-4.55-5.45-5.88-12.84-3.98-22.14,1.65-8.06,5.2-14.32,10.66-18.8,5.45-4.48,12.36-6.72,20.72-6.72,8.81,0,15.54,2.75,20.19,8.26,4.6,5.51,5.95,12.86,4.05,22.07-1.75,8.31-5.33,14.65-10.73,19.03-5.41,4.38-12.39,6.57-20.94,6.57ZM951.08,710.66c6.46,0,10.58-4.28,12.39-12.84,1-4.7.68-8.26-.98-10.66-1.65-2.4-4.28-3.6-7.88-3.6-6.26,0-10.33,4.2-12.24,12.61-1,4.8-.7,8.42.9,10.85,1.6,2.43,4.2,3.64,7.81,3.64Z"/>
  </g>
</svg>