<?xml version="1.0" encoding="UTF-8"?>
<svg id="Capa_1" xmlns="http://www.w3.org/2000/svg" version="1.1" viewBox="0 0 1080 1080">
  <!-- Generator: Adobe Illustrator 29.5.0, SVG Export Plug-In . SVG Version: 2.1.0 Build 137)  -->
  <defs>
    <style>
      .st0 {
        fill: #62398d;
      }
    </style>
  </defs>
  <g>
    <path class="st0" d="M253.53,606.22l-47.12-132.34h38.27l27.69,84.71,28.4-84.71h37.56l-47.12,132.34h-37.69Z"/>
    <path class="st0" d="M345.12,606.22v-132.44h37.69v132.44h-37.69Z"/>
    <path class="st0" d="M517.01,606.22v-132.34h103.66v31.19h-65.96v20.59h56.54v28.78l-56.54-.11v23.11h65.96v28.78h-103.66Z"/>
    <path class="st0" d="M627.07,605.71v-131.4h33.97l54.06,75.29v-75.29h37.68v131.4h-33.55l-54.47-74.96v74.96h-37.69Z"/>
    <path class="st0" d="M798.2,605.28v-93.8h-37.69v-37.6h113.08v37.6h-37.24v93.8h-38.14Z"/>
    <path class="st0" d="M487.29,561.33c-6.12,6.95-15.13,11.4-25.11,11.4-18.43,0-33.37-14.94-33.37-33.37s14.94-33.37,33.37-33.37c10.2,0,19.41,4.66,25.53,11.88l23.05-16.47c-12.91-17.85-33.52-27.62-52.88-27.62s-34.95,6.33-47.67,18.99c-12.73,12.67-19.09,28.29-19.09,46.86s6.3,34.65,18.91,47.13c12.6,12.49,28.07,18.73,46.41,18.73,13.14,0,23.43-2.83,32.24-7.84,8.28-4.71,15.65-11.32,22.02-19.62l-23.41-16.72Z"/>
  </g>
  <g>
    <rect class="st0" x="134.79" y="436.34" width="37.69" height="207.32"/>
    <rect class="st0" x="78.25" y="474.57" width="37.69" height="131.9"/>
    <rect class="st0" x="21.71" y="511.73" width="37.69" height="56.54"/>
  </g>
  <g>
    <rect class="st0" x="907.52" y="436.34" width="37.69" height="207.32" transform="translate(1852.73 1080) rotate(-180)"/>
    <rect class="st0" x="964.06" y="474.57" width="37.69" height="131.9" transform="translate(1965.81 1081.04) rotate(-180)"/>
    <rect class="st0" x="1020.6" y="511.73" width="37.69" height="56.54" transform="translate(2078.89 1080) rotate(-180)"/>
  </g>
</svg>