<?xml version="1.0" encoding="UTF-8"?>
<svg id="Capa_1" xmlns="http://www.w3.org/2000/svg" version="1.1" viewBox="0 0 1080 1080">
  <!-- Generator: Adobe Illustrator 29.5.0, SVG Export Plug-In . SVG Version: 2.1.0 Build 137)  -->
  <defs>
    <style>
      .st0 {
        fill: #62398d;
      }
    </style>
  </defs>
  <g>
    <g>
      <path class="st0" d="M72.91,528.15l8.46,16.91,21.15-42.3h33.84l21.37,42.3,21.15-42.3h33.76l-42.3,84.6h-25.52l-21.15-42.3-21.15,42.3h-37.68l-21.89-50.75,29.96-8.46Z"/>
      <path class="st0" d="M178.94,587.4l42.57-84.63h126.74l-12.77,25.39h-93.09l-8.51,16.93h93.09l-8.51,16.93h-93.09l-4.26,8.46h93.09l-8.51,16.93h-126.74Z"/>
      <path class="st0" d="M453.66,587.4l42.57-84.63h118.48l-42.57,84.63h-33.85l29.8-59.24h-50.78l-29.8,59.24h-33.85Z"/>
      <path class="st0" d="M580.47,587.4l42.71-84.63h33.85l-42.57,84.63h-33.99Z"/>
      <path class="st0" d="M622.92,587.4l8.51-16.93h101.56l4.26-8.46h-101.56l29.8-59.24h126.95l-12.77,25.39h-93.09l-8.51,16.93h93.09l-21.29,42.32h-126.95Z"/>
      <path class="st0" d="M758.08,587.4l42.83-84.63h135.41l-42.57,84.63h-33.85l29.8-59.24h-16.93l-29.8,59.24h-33.85l29.8-59.24h-16.93l-29.8,59.24h-34.11Z"/>
      <path class="st0" d="M902.21,587.4l42.47-84.55,118.27.37-42.32,84.18h-118.43ZM995.25,570.47l21.13-41.88-50.52-.43-21.29,42.32h50.68Z"/>
      <polygon class="st0" points="449.61 594.28 441.22 553.54 458.15 553.54 483.69 502.77 356.75 502.77 314.18 587.4 348.03 587.4 377.83 528.15 437.07 528.15 428.56 545.08 386.24 545.08 377.73 562.01 411.58 562.01 420.67 611.6 672.44 611.6 680.96 594.28 449.61 594.28"/>
    </g>
    <polygon class="st0" points="70.95 515.51 70.65 523.39 40.7 531.85 35.91 525.17 19.7 525.17 17.01 519.82 30.89 511.23 37.05 498.99 49.27 498.87 47.25 488.75 51.82 494.3 56.02 485.84 70.95 515.51"/>
  </g>
  <g>
    <polygon class="st0" points="1054.71 468.4 1050.42 477.69 1062.99 477.93 1047.76 483.44 1043.47 492.73 1038.35 486.83 1023.13 492.34 1035.19 483.19 1030.07 477.3 1042.65 477.54 1054.71 468.4"/>
    <polygon class="st0" points="1014.83 468.4 1010.54 477.69 1023.11 477.93 1007.88 483.44 1003.59 492.73 998.47 486.83 983.25 492.34 995.31 483.19 990.19 477.3 1002.77 477.54 1014.83 468.4"/>
    <polygon class="st0" points="974.95 468.4 970.66 477.69 983.23 477.93 968 483.44 963.71 492.73 958.59 486.83 943.37 492.34 955.43 483.19 950.32 477.3 962.89 477.54 974.95 468.4"/>
  </g>
</svg>